<?xml version="1.0" encoding="utf-8"?>
<!-- Generator: Adobe Illustrator 21.1.0, SVG Export Plug-In . SVG Version: 6.00 Build 0)  -->
<svg version="1.1" id="Layer_1" xmlns="http://www.w3.org/2000/svg" xmlns:xlink="http://www.w3.org/1999/xlink" x="0px" y="0px"
	 viewBox="0 0 400.2 300" style="enable-background:new 0 0 400.2 300;" xml:space="preserve">
<style type="text/css">
	.st0{fill:#A2ABE7;}
	.st1{fill:#9D7A6E;}
	.st2{fill:#242751;}
	.st3{fill:#FFFFFF;}
	.st4{fill:#C6C8C8;}
	.st5{fill:#B8BBBB;}
	.st6{fill:#9C9791;}
	.st7{fill:#F0F1F1;}
	.st8{fill:#CACDCD;}
	.st9{fill:#F0EBE6;}
	.st10{fill:#E5DFDA;}
	.st11{fill:#E7E2DD;}
	.st12{fill:#EDE8E5;}
	.st13{fill:#D3D1CE;}
	.st14{fill:#FFFDFD;}
	.st15{fill:#DED7D3;}
	.st16{fill:#2D3534;}
	.st17{fill:#3E5969;}
	.st18{fill:#484E4D;}
	.st19{fill:#3E4443;}
	.st20{fill:#2F3635;}
	.st21{fill:#595857;}
	.st22{fill:#302F2F;}
	.st23{fill:#5D6261;}
	.st24{fill:#DBD2D1;}
	.st25{fill:#D2C8C6;}
	.st26{fill:#72190A;}
	.st27{fill:#8C200C;}
	.st28{fill:#BCBEBD;}
	.st29{fill:#CDCFCA;}
	.st30{fill:#FCFAFF;}
	.st31{fill:#412F25;}
	.st32{fill:#523C2E;}
	.st33{fill:#DADCDA;}
	.st34{fill:#D2D3D5;}
	.st35{fill:#B4B5B5;}
	.st36{fill:#141D51;}
	.st37{fill:#E0DAD7;}
	.st38{fill:#A5A098;}
	.st39{fill:#B3B7B7;}
	.st40{fill:#BBB5AD;}
	.st41{fill:#212939;}
	.st42{fill:#D7D3CF;}
	.st43{fill:#323F56;}
	.st44{fill:#3A475E;}
	.st45{fill:#636B79;}
</style>
<g id="XMLID_1_">
	<rect id="XMLID_199_" x="0.3" class="st0" width="399.9" height="300"/>
	<g>
		<polygon id="XMLID_198_" class="st1" points="369.6,129.7 233,49.5 30.8,166.3 30.8,170.4 168.6,249.9 369.6,133.8 		"/>
		<polygon id="XMLID_197_" class="st2" points="30.9,166.3 168.8,245.7 369.7,129.7 233.1,49.5 		"/>
		<polygon id="XMLID_196_" class="st3" points="30.9,166.2 168.8,245.7 168.8,249.8 30.9,170.3 		"/>
		<polygon id="XMLID_195_" class="st4" points="369.7,129.6 168.8,245.7 168.8,249.8 369.7,133.8 		"/>
		<path class="st5" d="M149.7,209.5l-4.9-2.3c-0.9-0.4-0.9-1.6,0-2l60.6-35.1c0.1-0.1,0.3-0.1,0.5-0.1c0.1,0,0.3,0,0.5,0.1l1.6,0.8
			l-57.5,33.3c0,0-0.1,0-0.1,0.1c-1.2,0.4-2,1.6-1.8,3.1C148.7,208.2,149.1,208.9,149.7,209.5 M173.1,220.2l-21.2-9.8
			c0.1,0,0.1,0,0.2,0l0,0c0.4,0,0.8-0.1,1.1-0.2l0,0l2.4-1.1L173.1,220.2z M174.3,220.7c-0.1,0-0.3,0-0.4-0.1
			C174.1,220.7,174.2,220.7,174.3,220.7c0.1,0,0.2,0,0.3,0C174.5,220.7,174.4,220.7,174.3,220.7L174.3,220.7z"/>
		<polygon id="XMLID_191_" class="st6" points="161.1,204 151.5,208.4 153.2,210.3 162.9,205.9 		"/>
		<path id="XMLID_190_" class="st7" d="M207.9,171.7l-57.5,32.7c-0.4,0.2-0.4,1.3,0,1.5l23,14.5c0.6,0.3,1.3,0.3,1.9,0l57-33.1
			c0.4-0.2,0.5-1.3,0.1-1.5l-23.5-14.2C208.6,171.6,208.2,171.6,207.9,171.7"/>
		<path id="XMLID_189_" class="st8" d="M207.9,171l-57.5,33.3c-0.4,0.2-0.4,0.8,0,1l23,14.5c0.6,0.3,1.3,0.3,1.9,0l57-33.1
			c0.4-0.2,0.4-0.8,0-1l-23.5-14.7C208.6,170.8,208.2,170.8,207.9,171"/>
		<path class="st9" d="M160.5,210.1c-0.4-0.2-0.7-0.5-1.1-0.7C159.8,209.7,160.2,209.9,160.5,210.1 M217.7,189.8
			c-0.3,0.2-0.4,0.4-0.1,0.6c0.1,0.1,0.2,0.1,0.3,0.2c0.3,0.2,0.7,0.1,1.1-0.1c0.6-0.3,1.3-0.7,1.9-1.1c0.3-0.2,0.3-0.4,0.1-0.5
			c-0.1-0.1-0.2-0.1-0.3-0.2c-0.3-0.2-0.7-0.1-1.1,0C218.9,189.1,218.3,189.5,217.7,189.8z M188,204.7c-0.3,0.2-0.4,0.5-0.1,0.6
			c0.6,0.4,1.3,0.8,1.9,1.2c0.2,0.1,0.7,0.1,1,0c5.6-3.1,11.3-6.3,17.1-9.5c0.3-0.2,0.4-0.5,0.2-0.6c-0.7-0.4-1.3-0.8-1.9-1.3
			c-0.3-0.2-0.7-0.1-1,0C199.3,198.3,193.6,201.5,188,204.7z M212.2,191.1c-0.3,0.2-0.4,0.5-0.1,0.6c0.6,0.4,1.3,0.9,1.9,1.3
			c0.2,0.2,0.7,0.1,1,0c0.7-0.4,1.4-0.8,2.1-1.2c0.3-0.2,0.4-0.5,0.1-0.6c-0.6-0.4-1.3-0.9-1.9-1.3c-0.3-0.2-0.7-0.1-1.1,0
			C213.7,190.3,213,190.7,212.2,191.1z M183.4,207.3c-0.3,0.2-0.4,0.4-0.1,0.6c0.6,0.4,1.3,0.8,1.9,1.2c0.3,0.1,0.7,0.1,1,0
			c0.8-0.5,1.7-0.9,2.5-1.4c0.3-0.2,0.4-0.5,0.1-0.6c-0.7-0.4-1.3-0.8-1.9-1.2c-0.2-0.2-0.7-0.1-1,0
			C185.1,206.3,184.2,206.8,183.4,207.3z M207.3,193.9c-0.3,0.2-0.4,0.5-0.1,0.6c0.6,0.4,1.3,0.9,1.9,1.3c0.3,0.2,0.7,0.1,1,0
			c0.9-0.5,1.9-1,2.8-1.5c0.3-0.2,0.4-0.5,0.2-0.6c-0.6-0.4-1.3-0.8-1.9-1.3c-0.3-0.2-0.7-0.1-1.1,0
			C209.1,192.8,208.2,193.3,207.3,193.9z M172.7,210.1c-0.2-0.1-0.7-0.1-1,0c-1.4,0.8-2.7,1.5-4.1,2.3c-0.3,0.2-0.3,0.4-0.1,0.6
			c0.5,0.3,1,0.6,1.5,0.9c0.2,0.1,0.7,0.1,1,0c1.3-0.7,2.7-1.5,4-2.3c0.3-0.2,0.3-0.4,0.1-0.6C173.7,210.7,173.2,210.4,172.7,210.1z
			 M179.2,209.6c-0.3,0.2-0.3,0.4-0.1,0.6c0.6,0.4,1.3,0.8,1.9,1.2c0.2,0.1,0.7,0.1,1,0c0.7-0.4,1.5-0.8,2.2-1.2
			c0.3-0.2,0.3-0.4,0.1-0.6c-0.6-0.4-1.3-0.8-1.9-1.2c-0.2-0.1-0.7-0.1-1,0C180.6,208.8,179.9,209.2,179.2,209.6z M175.3,211.8
			c-0.3,0.2-0.3,0.4-0.1,0.6c0.6,0.4,1.3,0.8,1.9,1.2c0.2,0.1,0.7,0.1,1,0c0.6-0.3,1.3-0.7,1.9-1.1c0.3-0.2,0.3-0.4,0.1-0.6
			c-0.6-0.4-1.3-0.8-1.9-1.2c-0.2-0.1-0.7-0.1-1,0C176.5,211.1,175.9,211.5,175.3,211.8z M170.8,214.4c-0.3,0.2-0.3,0.4-0.1,0.6
			c0.6,0.4,1.3,0.8,1.9,1.2c0.2,0.1,0.7,0.1,1,0c0.9-0.5,1.7-0.9,2.5-1.4c0.3-0.2,0.3-0.4,0.1-0.6c-0.6-0.4-1.3-0.8-1.9-1.2
			c-0.2-0.1-0.7-0.1-1,0C172.4,213.4,171.6,213.9,170.8,214.4z M197.8,188.1c-0.2,0-0.3,0-0.7,0.2c-0.7,0.4-1.5,0.9-2.2,1.3
			c-0.3,0.2-0.4,0.5-0.1,0.6c0.4,0.2,0.7,0.5,1.1,0.7c0.3,0.2,0.5,0.2,0.5,0.2s0.3,0,0.6-0.2c0.7-0.4,1.5-0.8,2.2-1.3
			c0.3-0.2,0.4-0.5,0.1-0.6c-0.4-0.2-0.7-0.5-1.1-0.7C198,188.2,198,188.1,197.8,188.1z M221,188c-0.3,0.1-0.3,0.4-0.1,0.5
			c0.1,0.1,0.2,0.1,0.3,0.2c0.3,0.2,0.8,0.1,1.1-0.1c0.7-0.4,1.3-0.7,2-1.1c0.2-0.1,0.3-0.3,0.1-0.5c-0.1-0.1-0.2-0.1-0.3-0.2
			c-0.3-0.2-0.8-0.2-1.1,0.1C222.3,187.3,221.6,187.6,221,188z M190.4,192.1c-0.3,0.2-0.4,0.5-0.1,0.6c0.4,0.3,0.8,0.5,1.2,0.8
			c0.3,0.2,0.5,0.1,0.5,0.2c0,0,0.2,0,0.5-0.2c0.8-0.5,1.6-0.9,2.3-1.3c0.3-0.2,0.4-0.5,0.1-0.6c-0.4-0.3-0.8-0.5-1.2-0.8
			c-0.3-0.2-0.7-0.1-1,0C192,191.3,191.2,191.7,190.4,192.1z M188.9,193.2c0,0-0.2,0-0.6,0.2c-0.8,0.5-1.5,0.9-2.3,1.3
			c-0.3,0.2-0.4,0.5-0.1,0.6c0.4,0.3,0.8,0.5,1.2,0.8c0.3,0.2,0.7,0.1,1,0c0.8-0.4,1.5-0.9,2.3-1.3c0.3-0.2,0.4-0.5,0.1-0.6
			c-0.4-0.3-0.8-0.5-1.1-0.7C189.2,193.2,188.9,193.2,188.9,193.2z M208.6,184.3c0.3-0.2,0.4-0.5,0.1-0.7c-0.4-0.3-0.8-0.5-1.2-0.8
			c-0.3-0.2-0.7-0.1-1.1,0c-0.8,0.5-1.6,0.9-2.4,1.4c-0.3,0.2-0.4,0.5-0.1,0.7c0.4,0.3,0.8,0.5,1.2,0.8c0.2,0.2,0.7,0.1,1.1,0
			C207,185.3,207.8,184.8,208.6,184.3z M202.6,185.4c-0.1,0-0.3,0-0.7,0.2c-0.9,0.5-1.7,1-2.6,1.5c-0.3,0.2-0.4,0.5-0.1,0.6
			c0.4,0.3,0.8,0.5,1.2,0.8c0.2,0.1,0.5,0.1,0.5,0.1l0,0c0,0,0.2,0,0.5-0.2c0.9-0.5,1.7-1,2.6-1.5c0.3-0.2,0.4-0.5,0.1-0.7
			c-0.4-0.2-0.7-0.5-1.1-0.7C202.8,185.5,202.7,185.4,202.6,185.4z M224.9,186.7c0.3,0.2,0.7,0.1,1.1-0.1c0.6-0.3,1.2-0.7,1.9-1.1
			c0.2-0.1,0.3-0.3,0.1-0.4c-0.1-0.1-0.3-0.2-0.4-0.3c-0.2-0.2-0.7-0.2-1.1,0c-0.7,0.4-1.3,0.7-1.9,1.1c-0.2,0.1-0.2,0.3-0.1,0.3
			C224.6,186.5,224.7,186.6,224.9,186.7z M207.8,185.7c-0.3,0.2-0.4,0.5-0.1,0.7c0.5,0.3,1,0.7,1.5,1c0.3,0.2,0.7,0.1,1.1-0.1
			c0.9-0.5,1.8-1,2.7-1.5c0.3-0.2,0.4-0.5,0.1-0.7c-0.5-0.3-1-0.7-1.5-1c-0.3-0.2-0.7-0.1-1.1,0.1
			C209.6,184.7,208.7,185.2,207.8,185.7z M188.1,189c0.3-0.2,0.4-0.5,0.1-0.6c-0.2-0.1-0.3-0.2-0.5-0.3c-0.3-0.2-0.7-0.1-1.1,0
			c-1,0.6-1.9,1.1-2.9,1.7c-0.3,0.2-0.4,0.5-0.1,0.6c0.2,0.1,0.3,0.2,0.5,0.3c0.3,0.2,0.7,0.1,1.1,0
			C186.2,190.1,187.1,189.5,188.1,189z M202.6,180.6c0.3-0.2,0.4-0.5,0.1-0.7c-0.2-0.1-0.4-0.2-0.5-0.4c-0.2-0.2-0.7-0.1-1.1,0
			c-1,0.6-2,1.2-3,1.8c-0.3,0.2-0.4,0.5-0.1,0.7c0.2,0.1,0.3,0.2,0.5,0.4c0.3,0.2,0.7,0.1,1.1,0
			C200.5,181.7,201.6,181.2,202.6,180.6z M212.2,175c0.3-0.2,0.4-0.5,0.1-0.7c-0.2-0.1-0.4-0.2-0.5-0.4c-0.3-0.2-0.7-0.2-1.1,0.1
			c-0.9,0.5-1.9,1.1-2.8,1.6c-0.3,0.2-0.4,0.5-0.1,0.7c0.2,0.1,0.3,0.3,0.5,0.4c0.2,0.2,0.7,0.1,1.1,0
			C210.3,176.1,211.2,175.5,212.2,175z M207.2,177.9c0.3-0.2,0.4-0.5,0.1-0.7c-0.2-0.1-0.3-0.2-0.5-0.4c-0.3-0.2-0.7-0.2-1.1,0
			c-0.8,0.5-1.6,0.9-2.4,1.4c-0.3,0.2-0.4,0.5-0.1,0.7c0.2,0.1,0.3,0.2,0.5,0.4c0.3,0.2,0.7,0.2,1.1,0
			C205.6,178.9,206.4,178.4,207.2,177.9z M197.4,183.6c0.3-0.2,0.4-0.5,0.1-0.7c-0.2-0.1-0.4-0.2-0.5-0.4c-0.3-0.2-0.7-0.1-1.1,0
			c-0.9,0.5-1.7,1-2.5,1.5c-0.3,0.2-0.4,0.5-0.1,0.7c0.2,0.1,0.3,0.3,0.5,0.4c0.3,0.2,0.7,0.1,1.1,0
			C195.6,184.6,196.5,184.1,197.4,183.6z M192.6,186.3c0.3-0.2,0.4-0.5,0.1-0.7c-0.2-0.1-0.3-0.2-0.5-0.3c-0.3-0.2-0.7-0.1-1.1,0
			c-0.8,0.5-1.6,0.9-2.5,1.4c-0.3,0.2-0.4,0.5-0.1,0.7c0.2,0.1,0.3,0.2,0.5,0.3c0.3,0.2,0.7,0.1,1.1,0
			C191,187.3,191.8,186.8,192.6,186.3z M214.9,188.1c0.3,0.2,0.5,0.1,0.5,0.1c0,0,0.2,0,0.6-0.2c2.8-1.6,5.6-3.1,8.4-4.7
			c0.3-0.2,0.4-0.5,0.2-0.7c-0.5-0.3-1-0.7-1.5-1.1c-0.3-0.2-0.7-0.1-1.1,0c-2.8,1.6-5.6,3.2-8.4,4.7c-0.3,0.2-0.4,0.5-0.1,0.7
			C213.9,187.4,214.4,187.7,214.9,188.1z M172.8,208.6c0.3-0.2,0.4-0.4,0.1-0.6c-0.5-0.3-1-0.6-1.5-1c-0.3-0.1-0.7-0.1-1,0
			c-2,1.1-4,2.3-5.9,3.4c-0.3,0.2-0.3,0.4-0.1,0.6c0.5,0.3,1,0.6,1.5,0.9c0.3,0.1,0.5,0.1,0.5,0.1s0.3,0,0.6-0.2
			C168.9,210.8,170.8,209.7,172.8,208.6z M208.4,180.3c0.3,0.2,0.7,0.2,1.1,0c1.9-1.1,3.8-2.2,5.7-3.3c0.3-0.2,0.4-0.5,0.2-0.7
			c-0.4-0.3-0.9-0.6-1.3-0.9c-0.3-0.2-0.7-0.1-1.1,0.1c-1.9,1.1-3.7,2.2-5.6,3.3c-0.3,0.2-0.4,0.5-0.1,0.7
			C207.6,179.7,208,180,208.4,180.3z M214.3,180.4c0.2,0.2,0.3,0.2,0.5,0.2c0.2,0,0.7-0.2,0.7-0.2c0.3-0.2,0.5-0.4,0.7-0.4
			c0.2-0.1,0.5,0.1,0.7,0.3c0.7,0.5,1.5,1,2.2,1.5c0.3,0.2,0.7,0.1,1.1,0c0.3-0.2,0.7-0.4,1-0.5c0.3-0.2,0.4-0.5,0.2-0.7
			c-1.5-1-2.9-2-4.4-3c-0.3-0.2-0.7-0.1-1.1,0.1c-0.9,0.5-1.7,1-2.5,1.5c-0.3,0.2-0.4,0.5-0.2,0.7
			C213.6,179.9,213.9,180.2,214.3,180.4z M165.2,202.2c0.3-0.2,0.3-0.5,0.1-0.6c-0.2-0.1-0.4-0.2-0.5-0.3c-0.2-0.1-0.7-0.1-1,0
			c-0.8,0.5-1.6,0.9-2.3,1.4c-0.3,0.2-0.3,0.5-0.1,0.6c0.2,0.1,0.3,0.2,0.5,0.3c0.3,0.1,0.7,0.1,1,0
			C163.6,203.2,164.4,202.7,165.2,202.2z M162,205.5c-0.3-0.1-0.7-0.1-1,0c-0.8,0.5-1.5,0.9-2.3,1.3c-0.3,0.2-0.3,0.4-0.1,0.6
			c0.4,0.3,0.9,0.5,1.3,0.8c0.3,0.1,0.7,0.1,1,0c0.8-0.4,1.5-0.9,2.3-1.3c0.3-0.2,0.3-0.5,0.1-0.6
			C162.9,206.1,162.4,205.8,162,205.5z M169.6,199.7c0.3-0.2,0.3-0.5,0.1-0.6c-0.2-0.1-0.3-0.2-0.5-0.3c-0.3-0.1-0.7-0.1-1,0
			c-0.8,0.5-1.6,0.9-2.4,1.4c-0.3,0.2-0.3,0.5-0.1,0.6c0.2,0.1,0.3,0.2,0.5,0.3c0.3,0.2,0.7,0.1,1,0
			C168,200.6,168.8,200.1,169.6,199.7z M181.6,197.2c-0.3,0.2-0.4,0.5-0.1,0.6c0.4,0.3,0.8,0.5,1.2,0.7c0.2,0.2,0.7,0.1,1,0
			c0.8-0.4,1.5-0.9,2.3-1.3c0.3-0.2,0.4-0.5,0.1-0.6c-0.4-0.3-0.8-0.5-1.2-0.8c-0.2-0.2-0.7-0.1-1,0
			C183.2,196.3,182.4,196.8,181.6,197.2z M167.6,205.8c-0.2-0.1-0.7-0.1-1,0c-1.7,1-3.3,1.9-5,2.9c-0.3,0.2-0.3,0.4-0.1,0.6
			c0.4,0.2,0.8,0.5,1.2,0.7c0.3,0.1,0.7,0.1,1,0c1.7-0.9,3.3-1.9,5-2.9c0.3-0.2,0.3-0.4,0.1-0.6C168.4,206.3,168,206.1,167.6,205.8z
			 M183.1,191.9c0.3-0.2,0.4-0.5,0.1-0.6c-0.2-0.1-0.4-0.2-0.5-0.3c-0.3-0.2-0.7-0.1-1.1,0c-0.8,0.5-1.6,0.9-2.4,1.4
			c-0.3,0.2-0.4,0.5-0.1,0.6c0.2,0.1,0.4,0.2,0.5,0.3c0.3,0.2,0.7,0.1,1,0C181.5,192.8,182.3,192.3,183.1,191.9z M174.1,197.1
			c0.3-0.2,0.3-0.5,0.1-0.6c-0.2-0.1-0.3-0.2-0.5-0.3c-0.3-0.2-0.7-0.1-1,0c-0.8,0.5-1.6,0.9-2.4,1.4c-0.3,0.2-0.3,0.5-0.1,0.6
			c0.2,0.1,0.3,0.2,0.5,0.3c0.3,0.1,0.7,0.1,1,0C172.4,198,173.2,197.6,174.1,197.1z M178.6,194.5c0.3-0.2,0.3-0.5,0.1-0.6
			c-0.2-0.1-0.3-0.2-0.5-0.3c-0.3-0.2-0.7-0.1-1,0c-0.8,0.5-1.6,0.9-2.4,1.4c-0.3,0.2-0.4,0.5-0.1,0.6c0.2,0.1,0.3,0.2,0.5,0.3
			c0.3,0.2,0.7,0.1,1,0C176.9,195.4,177.7,195,178.6,194.5z M161.1,204.5c0,0,0-0.1-0.2-0.3c-0.2-0.1-0.3-0.2-0.5-0.3
			c-0.3-0.1-0.7-0.1-1,0c-1,0.6-1.9,1.1-2.9,1.7c-0.3,0.2-0.3,0.5-0.1,0.6c0.2,0.1,0.3,0.2,0.5,0.3c0.3,0.1,0.7,0.1,1,0
			c0.9-0.5,1.9-1.1,2.9-1.7C161.1,204.6,161.1,204.5,161.1,204.5z M176.4,207.5c0,0-0.3,0-0.5,0.2c-0.7,0.4-1.5,0.8-2.2,1.3
			c-0.3,0.2-0.3,0.4-0.1,0.6c0.5,0.3,1,0.6,1.5,1c0.3,0.1,0.7,0.1,1,0c0.7-0.4,1.5-0.8,2.2-1.2c0.3-0.2,0.3-0.5,0.1-0.6
			c-0.5-0.3-1-0.6-1.5-0.9C176.7,207.6,176.4,207.6,176.4,207.5z M177,206.2c0.3-0.2,0.4-0.5,0.1-0.6c-0.5-0.3-1-0.6-1.5-1
			c-0.3-0.1-0.7-0.1-1,0c-0.7,0.4-1.5,0.9-2.2,1.3c-0.3,0.2-0.4,0.4-0.1,0.6c0.5,0.3,1,0.6,1.5,0.9c0.3,0.1,0.7,0.1,1,0
			C175.6,207,176.3,206.6,177,206.2z M172,203.4c-0.3-0.1-0.5-0.2-0.5-0.2s-0.3,0-0.6,0.2c-0.7,0.4-1.5,0.9-2.3,1.3
			c-0.3,0.2-0.3,0.4-0.1,0.6c0.4,0.3,0.8,0.5,1.2,0.7c0.2,0.2,0.7,0.1,1,0c0.7-0.4,1.5-0.9,2.2-1.3c0.3-0.2,0.3-0.5,0.1-0.6
			C172.7,203.9,172.4,203.6,172,203.4z M177.9,206.6c-0.3,0.2-0.3,0.5-0.1,0.6c0.5,0.3,1,0.7,1.5,1c0.2,0.1,0.4,0.1,0.4,0.1
			s0.3,0,0.6-0.2c0.7-0.4,1.5-0.8,2.3-1.3c0.3-0.2,0.3-0.4,0.1-0.6c-0.5-0.3-1-0.7-1.5-1c-0.3-0.2-0.7-0.1-1,0
			C179.4,205.7,178.6,206.2,177.9,206.6z M165.7,202.9c0,0-0.2,0-0.5,0.2c-0.7,0.4-1.5,0.9-2.2,1.3c-0.3,0.2-0.3,0.5-0.1,0.6
			c0.4,0.3,0.8,0.5,1.3,0.8c0.3,0.1,0.7,0.1,1,0c0.7-0.4,1.5-0.9,2.2-1.3c0.3-0.2,0.3-0.5,0.1-0.6c-0.4-0.3-0.8-0.5-1.2-0.8
			C166,203,165.7,203,165.7,202.9z M176,199.6c0.3-0.2,0.4-0.5,0.1-0.6c-0.4-0.3-0.9-0.5-1.3-0.8c-0.3-0.1-0.7-0.1-1,0
			c-0.7,0.4-1.5,0.9-2.3,1.3c-0.3,0.2-0.3,0.5-0.1,0.6c0.4,0.3,0.8,0.5,1.2,0.8c0.3,0.2,0.7,0.1,1,0
			C174.4,200.5,175.2,200,176,199.6z M168.9,203.5c0,0,0.2,0,0.5-0.2c0.7-0.4,1.5-0.9,2.2-1.3c0.3-0.2,0.3-0.5,0.1-0.6
			c-0.4-0.3-0.9-0.5-1.3-0.8c-0.3-0.2-0.7-0.1-1,0c-0.7,0.4-1.5,0.9-2.2,1.3c-0.3,0.2-0.3,0.5-0.1,0.6c0.4,0.3,0.8,0.5,1.3,0.8
			C168.6,203.5,168.9,203.5,168.9,203.5z M182.2,204.1c-0.3,0.2-0.4,0.5-0.1,0.6c0.5,0.3,1,0.7,1.5,1c0.2,0.1,0.7,0.1,1,0
			c0.7-0.4,1.5-0.9,2.3-1.3c0.3-0.2,0.4-0.5,0.1-0.6c-0.5-0.3-1-0.7-1.5-1c-0.3-0.2-0.7-0.1-1,0
			C183.7,203.3,182.9,203.7,182.2,204.1z M204.4,191.6c-0.3,0.2-0.4,0.5-0.1,0.6c0.5,0.3,1,0.7,1.5,1c0.2,0.2,0.7,0.1,1,0
			c0.8-0.5,1.6-0.9,2.4-1.3c0.3-0.2,0.4-0.5,0.1-0.6c-0.5-0.3-1-0.7-1.5-1c-0.3-0.2-0.7-0.1-1.1,0
			C205.9,190.7,205.2,191.1,204.4,191.6z M208.9,189c-0.3,0.2-0.4,0.5-0.1,0.6c0.5,0.3,1,0.7,1.5,1c0.2,0.2,0.7,0.1,1.1,0
			c0.8-0.5,1.6-0.9,2.4-1.4c0.3-0.2,0.4-0.5,0.2-0.6c-0.5-0.3-1-0.7-1.5-1c-0.3-0.2-0.7-0.1-1.1,0
			C210.5,188.1,209.7,188.6,208.9,189z M219.9,186.9c-0.4,0.2-0.4,0.5-0.2,0.7c0.1,0.1,0.3,0.2,0.5,0.3c0.2,0.1,0.6,0.1,0.9,0
			c0.7-0.4,1.3-0.7,2-1.1c0.3-0.2,0.4-0.5,0.2-0.7c-0.2-0.1-0.4-0.3-0.6-0.4c-0.1-0.1-0.4-0.1-0.5,0
			C221.4,186.1,220.6,186.5,219.9,186.9z M177.5,198.6c0,0,0.2,0,0.5-0.2c0.7-0.4,1.5-0.9,2.3-1.3c0.3-0.2,0.4-0.5,0.1-0.6
			c-0.4-0.3-0.9-0.5-1.3-0.8c-0.3-0.2-0.7-0.1-1,0c-0.8,0.5-1.5,0.9-2.3,1.3c-0.3,0.2-0.4,0.5-0.1,0.6c0.4,0.3,0.9,0.5,1.3,0.8
			C177.2,198.6,177.5,198.6,177.5,198.6z M186.6,201.7c-0.3,0.2-0.4,0.5-0.1,0.6c0.5,0.3,1,0.7,1.5,1c0.3,0.2,0.7,0.1,1,0
			c0.8-0.4,1.5-0.9,2.3-1.3c0.3-0.2,0.4-0.5,0.1-0.6c-0.5-0.3-1-0.7-1.5-1c-0.3-0.2-0.7-0.1-1,0
			C188.1,200.8,187.3,201.3,186.6,201.7z M190.9,199.2c-0.3,0.2-0.4,0.5-0.1,0.6c0.5,0.3,1,0.7,1.5,1c0.3,0.1,0.7,0.1,1,0
			c0.8-0.4,1.5-0.9,2.3-1.3c0.3-0.2,0.4-0.5,0.1-0.6c-0.5-0.3-1-0.7-1.5-1c-0.2-0.2-0.7-0.1-1,0
			C192.4,198.3,191.7,198.8,190.9,199.2z M198.1,195.3c0,0-0.2,0-0.5,0.2c-0.7,0.4-1.5,0.8-2.2,1.2c-0.3,0.2-0.4,0.5-0.1,0.6
			c0.5,0.3,1,0.6,1.5,0.9c0.3,0.2,0.5,0.1,0.5,0.1c0,0,0.3,0,0.6-0.1c0.7-0.4,1.5-0.8,2.2-1.2c0.3-0.2,0.4-0.5,0.1-0.6
			c-0.5-0.3-1-0.7-1.5-1C198.3,195.3,198.1,195.3,198.1,195.3z M202.8,192.7c0,0-0.2,0-0.5,0.2c-0.9,0.5-1.7,1-2.5,1.5
			c-0.3,0.2-0.4,0.5-0.1,0.6c0.5,0.3,1,0.7,1.5,1c0.2,0.2,0.7,0.1,1,0c0.8-0.5,1.7-0.9,2.5-1.4c0.3-0.2,0.4-0.5,0.1-0.6
			c-0.5-0.3-1-0.7-1.5-1C203,192.7,202.8,192.7,202.8,192.7z M180.1,198.2c0,0-0.3,0-0.6,0.2c-0.8,0.4-1.5,0.9-2.3,1.3
			c-0.3,0.2-0.3,0.5-0.1,0.6c0.4,0.3,0.8,0.5,1.1,0.7c0.3,0.2,0.3,0.1,0.5,0.1c0.1,0,0.3,0,0.6-0.2c0.7-0.4,1.5-0.9,2.3-1.3
			c0.3-0.2,0.4-0.5,0.1-0.6c-0.4-0.2-0.8-0.5-1.1-0.7C180.4,198.3,180.1,198.2,180.1,198.2z M191.6,197.8c0.2,0,0.3,0,0.6-0.2
			c0.8-0.4,1.6-0.9,2.3-1.3c0.3-0.2,0.4-0.5,0.1-0.6c-0.5-0.3-1-0.7-1.5-1c-0.3-0.2-0.7-0.1-1,0c-0.8,0.5-1.5,0.9-2.3,1.3
			c-0.3,0.2-0.4,0.5-0.1,0.6c0.5,0.3,1,0.6,1.4,0.9C191.3,197.7,191.4,197.8,191.6,197.8z M198.8,193.9c0.3-0.2,0.4-0.5,0.1-0.6
			c-0.5-0.3-1-0.7-1.5-1c-0.3-0.2-0.7-0.1-1.1,0c-0.7,0.4-1.5,0.8-2.2,1.3c-0.3,0.2-0.4,0.5-0.1,0.6c0.5,0.3,1,0.7,1.5,1
			c0.3,0.2,0.7,0.1,1-0.1C197.3,194.7,198.1,194.3,198.8,193.9z M208,188.6c0.3-0.2,0.4-0.5,0.1-0.7c-0.5-0.3-1-0.7-1.5-1
			c-0.3-0.2-0.7-0.1-1.1,0c-0.8,0.5-1.6,0.9-2.4,1.4c-0.3,0.2-0.4,0.5-0.1,0.6c0.5,0.3,1,0.7,1.5,1c0.3,0.2,0.7,0.1,1.1,0
			C206.4,189.5,207.2,189.1,208,188.6z M190.1,198.8c0.3-0.2,0.4-0.5,0.1-0.6c-0.5-0.3-1-0.7-1.5-1c-0.3-0.1-0.7-0.1-1,0
			c-0.8,0.4-1.5,0.9-2.3,1.3c-0.3,0.2-0.4,0.5-0.1,0.6c0.5,0.3,1,0.7,1.5,1c0.2,0.2,0.7,0.1,1,0
			C188.5,199.7,189.3,199.2,190.1,198.8z M203.5,191.2c0.3-0.2,0.4-0.5,0.1-0.6c-0.5-0.3-1-0.7-1.5-1c-0.3-0.2-0.7-0.1-1.1,0
			c-0.9,0.5-1.7,1-2.6,1.5c-0.3,0.2-0.4,0.5-0.1,0.6c0.5,0.3,0.9,0.6,1.4,0.9c0.3,0.2,0.7,0.2,1.1,0
			C201.7,192.1,202.6,191.7,203.5,191.2z M185.7,201.3c0.3-0.2,0.4-0.5,0.1-0.6c-0.5-0.3-0.9-0.6-1.4-0.9c-0.3-0.2-0.3-0.3-0.5-0.3
			c-0.2,0-0.3,0-0.6,0.1c-0.8,0.5-1.6,0.9-2.3,1.3c-0.3,0.2-0.4,0.5-0.1,0.6c0.5,0.3,1,0.7,1.5,1c0.3,0.2,0.7,0.1,1,0
			C184.2,202.1,184.9,201.7,185.7,201.3z M172.9,202.2c-0.3,0.2-0.3,0.5-0.1,0.6c0.4,0.3,0.8,0.5,1.2,0.7c0.3,0.1,0.7,0.1,1,0
			c0.7-0.4,1.5-0.9,2.3-1.3c0.3-0.2,0.3-0.5,0.1-0.6c-0.4-0.3-0.8-0.5-1.2-0.7c-0.3-0.2-0.7-0.1-1,0
			C174.4,201.3,173.7,201.8,172.9,202.2z M178.4,205.2c0,0,0.3,0,0.6-0.1c0.8-0.4,1.5-0.9,2.3-1.3c0.3-0.2,0.4-0.5,0.1-0.6
			c-0.5-0.3-1-0.7-1.5-1c-0.3-0.2-0.7-0.1-1,0c-0.7,0.4-1.5,0.9-2.3,1.3c-0.3,0.2-0.3,0.5-0.1,0.6c0.5,0.3,0.9,0.6,1.4,0.9
			C178.2,205.1,178.4,205.2,178.4,205.2z M204.3,183.3c0,0,0.3-0.1,0.6-0.3c0.8-0.5,1.6-0.9,2.4-1.4c0.3-0.2,0.4-0.5,0.1-0.7
			c-0.4-0.3-0.9-0.6-1.3-0.9c-0.2-0.2-0.7-0.1-1.1,0c-0.8,0.5-1.6,0.9-2.4,1.4c-0.3,0.2-0.4,0.5-0.1,0.7c0.4,0.3,0.9,0.6,1.3,0.9
			C204.1,183.1,204.3,183.3,204.3,183.3z M189.1,192c0.3-0.2,0.4-0.5,0.1-0.6c-0.4-0.3-0.9-0.5-1.3-0.8c-0.3-0.2-0.7-0.1-1,0
			c-0.8,0.5-1.6,0.9-2.3,1.3c-0.3,0.2-0.4,0.5-0.1,0.6c0.4,0.3,0.9,0.5,1.3,0.8c0.3,0.2,0.7,0.1,1,0
			C187.6,192.9,188.4,192.4,189.1,192z M214.1,184.6c0.2,0.2,0.7,0.1,1.1,0c0.9-0.5,1.9-1.1,2.8-1.6c0.3-0.2,0.4-0.5,0.1-0.7
			c-0.5-0.3-1-0.7-1.5-1.1c-0.3-0.2-0.7-0.1-1.1,0c-0.9,0.5-1.9,1.1-2.8,1.6c-0.3,0.2-0.4,0.5-0.2,0.7
			C213,183.9,213.6,184.3,214.1,184.6z M198.1,186.8c0.3-0.2,0.4-0.5,0.1-0.7c-0.4-0.3-0.8-0.5-1.2-0.8c-0.3-0.2-0.5-0.2-0.5-0.2
			s-0.3,0-0.6,0.2c-0.9,0.5-1.7,1-2.6,1.5c-0.3,0.2-0.4,0.5-0.1,0.6c0.4,0.3,0.9,0.6,1.3,0.9c0.2,0.2,0.7,0.1,1.1,0
			C196.4,187.8,197.3,187.3,198.1,186.8z M193.4,189.5c0.3-0.2,0.4-0.5,0.1-0.6c-0.4-0.3-0.8-0.5-1.2-0.8c-0.3-0.2-0.5-0.2-0.5-0.2
			c0,0-0.3,0-0.6,0.2c-0.7,0.4-1.5,0.9-2.2,1.3c-0.3,0.2-0.4,0.5-0.1,0.6c0.4,0.3,0.9,0.6,1.3,0.8c0.3,0.2,0.7,0.1,1,0
			C192,190.3,192.7,189.9,193.4,189.5z M181.8,196.1c0,0,0.2,0,0.5-0.2c0.8-0.4,1.5-0.9,2.3-1.3c0.3-0.2,0.4-0.5,0.1-0.6
			c-0.4-0.3-0.9-0.5-1.3-0.8c-0.3-0.2-0.7-0.1-1,0c-0.8,0.5-1.5,0.9-2.3,1.3c-0.3,0.2-0.4,0.5-0.1,0.6c0.4,0.3,0.8,0.5,1.3,0.8
			C181.6,196.1,181.8,196.1,181.8,196.1z M202.7,184.2c0.3-0.2,0.4-0.5,0.1-0.7c-0.4-0.3-0.9-0.6-1.3-0.9c-0.3-0.2-0.7-0.1-1.1,0
			c-0.8,0.5-1.6,0.9-2.4,1.4c-0.3,0.2-0.4,0.5-0.1,0.7c0.4,0.3,0.9,0.6,1.3,0.9c0.3,0.2,0.7,0.1,1.1-0.1
			C201.1,185.1,201.9,184.6,202.7,184.2z M213.2,181.7c0.3-0.2,0.4-0.5,0.1-0.7c-0.4-0.3-0.8-0.5-1.2-0.8c-0.3-0.2-0.7-0.1-1.1,0
			c-0.8,0.5-1.6,0.9-2.4,1.4c-0.3,0.2-0.4,0.5-0.1,0.7c0.4,0.3,0.8,0.5,1.2,0.8c0.3,0.2,0.7,0.1,1.1,0
			C211.6,182.6,212.4,182.2,213.2,181.7z M173.2,217.6c-0.1,0-0.1,0-0.2,0C173.1,217.6,173.2,217.6,173.2,217.6
			c0.3,0,0.5-0.1,0.8-0.2c4.4-2.5,8.9-4.9,13.5-7.5c4.5-2.5,9.1-5.1,13.8-7.7c4.7-2.6,9.5-5.3,14.3-8c4.9-2.7,9.7-5.4,14.7-8.2
			c-5,2.7-9.9,5.5-14.7,8.2c-4.8,2.7-9.6,5.3-14.3,8c-4.7,2.6-9.3,5.1-13.8,7.7c-4.5,2.5-9,5-13.5,7.5
			C173.8,217.5,173.5,217.6,173.2,217.6z"/>
		<path id="XMLID_117_" class="st8" d="M154.7,207.3c0.3,1.7-0.9,3.1-2.6,3.2c-1.7,0-3.3-1.4-3.5-3.1c-0.3-1.7,0.9-3.1,2.6-3.2
			C152.8,204.2,154.4,205.6,154.7,207.3"/>
		<path id="XMLID_116_" class="st10" d="M153.2,207.7c0.2,1.2-0.6,2.2-1.7,2.2c-1.1,0-2.2-1-2.4-2.1c-0.2-1.2,0.6-2.2,1.7-2.2
			C151.9,205.5,153,206.5,153.2,207.7"/>
		<path id="XMLID_115_" class="st11" d="M149,207.3c0-1,0.7-1.8,1.7-1.8C149.7,205.5,149,206.3,149,207.3"/>
		<path id="XMLID_114_" class="st12" d="M150.5,209.6c-0.7-0.3-1.3-1.1-1.4-1.9c0-0.1,0-0.2,0-0.3c0-1,0.7-1.8,1.7-1.8h0l0,0
			c0.3,0,0.6,0.1,0.9,0.2C151.3,206.9,150.8,208.3,150.5,209.6"/>
		<path id="XMLID_113_" class="st5" d="M212.8,139.4c1.1,0.6,12.7,5.9,13.6,6.1c0.9,0.2,2.3,0.2,4.7-1.1s1.7-2.5,1.7-2.5l-6.6-2.8
			l-11-1.7c0,0-1.7,0.5-2.4,1C212.4,138.7,212.4,139.2,212.8,139.4"/>
		<path id="XMLID_112_" class="st5" d="M232.4,142.8c0.5-0.5,0.5-1.3-0.1-1.7c-6.3-5.2-12.7-5.4-13-5.4c0,0-1.8-0.1-4.3,1.1
			c-1.4,0.7-2.1,1.3-2.6,1.7c-0.2,0.2-0.1,0.5,0.2,0.6c2,0.3,7.2,1,12.7,5.6c0.4,0.3,0.9,0.5,1.3,0.4c0.8-0.1,2-0.3,3.6-0.9
			C231.4,143.7,232,143.2,232.4,142.8"/>
		<path id="XMLID_111_" class="st5" d="M212.5,138.9c-0.1-0.1,0-0.3,0.1-0.4C212.5,138.6,212.4,138.8,212.5,138.9L212.5,138.9z"/>
		<path id="XMLID_110_" class="st5" d="M213.2,139.2c-0.2,0-0.3-0.1-0.5-0.1c-0.1,0-0.2-0.1-0.3-0.2l0,0c0,0.1,0.1,0.2,0.3,0.2
			C212.9,139.1,213,139.1,213.2,139.2"/>
		<path id="XMLID_109_" class="st5" d="M215.2,136.8c2.1-1.1,3.7-1.1,4.1-1.1c0.1,0,0.1,0,0.1,0c0,0,0.1,0,0.2,0c-0.1,0-0.2,0-0.2,0
			s0,0-0.1,0C218.8,135.7,217.2,135.7,215.2,136.8"/>
		<path class="st5" d="M232.2,140.9L232.2,140.9L232.2,140.9 M232.3,140.9L232.3,140.9L232.3,140.9z M232.3,141L232.3,141L232.3,141
			z M232.3,141L232.3,141L232.3,141z M232.3,141C232.3,141,232.3,141,232.3,141C232.3,141,232.3,141,232.3,141L232.3,141z
			 M232.3,141L232.3,141L232.3,141z M232.4,141L232.4,141L232.4,141L232.4,141z M232.4,141C232.4,141,232.4,141,232.4,141
			C232.4,141,232.4,141,232.4,141L232.4,141z"/>
		<path id="XMLID_100_" class="st5" d="M217.4,137.7c0.2,0,0.3,0,0.5-0.1l0.6-0.3c0.2-0.1,0.2-0.4-0.1-0.5l-0.8-0.2
			c-0.1,0-0.1,0-0.1,0c-0.1,0-0.2,0-0.3,0.1l-0.7,0.4c-0.2,0.1-0.2,0.4,0.1,0.5l0.6,0.2C217.2,137.7,217.3,137.7,217.4,137.7"/>
		<path id="XMLID_99_" class="st8" d="M214.6,140.2c1.1,0.6,12.7,5.9,13.6,6.1c0.9,0.2,2.3,0.2,4.7-1.1c2.4-1.3,1.7-2.5,1.7-2.5
			l-6.6-2.8l-11-1.7c0,0-1.7,0.5-2.4,1C214.3,139.6,214.3,140,214.6,140.2"/>
		<path id="XMLID_98_" class="st7" d="M234.3,143.7c0.5-0.5,0.5-1.3-0.1-1.7c-6.3-5.2-12.7-5.4-13-5.4c0,0-1.8-0.1-4.3,1.1
			c-1.4,0.7-2.1,1.3-2.6,1.7c-0.2,0.2-0.1,0.5,0.2,0.6c2,0.3,7.2,1,12.7,5.6c0.4,0.3,0.9,0.5,1.3,0.4c0.8-0.1,2-0.3,3.6-0.9
			C233.2,144.5,233.9,144.1,234.3,143.7"/>
		<path id="XMLID_97_" class="st13" d="M214.4,139.8c-0.1-0.1,0-0.3,0.1-0.4C214.3,139.5,214.3,139.6,214.4,139.8L214.4,139.8z"/>
		<path id="XMLID_96_" class="st8" d="M215.1,140c-0.2,0-0.3-0.1-0.5-0.1c-0.1,0-0.2-0.1-0.3-0.2l0,0c0,0.1,0.1,0.2,0.3,0.2
			S214.9,140,215.1,140"/>
		<path id="XMLID_95_" class="st13" d="M217,137.7c2.1-1.1,3.7-1.1,4.1-1.1c0.1,0,0.1,0,0.1,0c0,0,0.1,0,0.2,0c-0.1,0-0.2,0-0.2,0
			s0,0-0.1,0C220.7,136.5,219.1,136.6,217,137.7"/>
		<path class="st14" d="M234.1,141.8L234.1,141.8L234.1,141.8 M234.1,141.8L234.1,141.8L234.1,141.8z M234.1,141.8
			C234.1,141.8,234.1,141.8,234.1,141.8C234.1,141.8,234.1,141.8,234.1,141.8z M234.2,141.8L234.2,141.8L234.2,141.8z M234.2,141.9
			C234.2,141.9,234.2,141.8,234.2,141.9C234.2,141.8,234.2,141.9,234.2,141.9L234.2,141.9z M234.2,141.9
			C234.2,141.9,234.2,141.9,234.2,141.9C234.2,141.9,234.2,141.9,234.2,141.9z M234.2,141.9C234.2,141.9,234.2,141.9,234.2,141.9
			C234.2,141.9,234.2,141.9,234.2,141.9L234.2,141.9z M234.2,141.9L234.2,141.9L234.2,141.9L234.2,141.9z"/>
		<path id="XMLID_86_" class="st15" d="M219.3,138.6c0.2,0,0.3,0,0.5-0.1l0.6-0.3c0.2-0.1,0.2-0.4-0.1-0.5l-0.8-0.2
			c-0.1,0-0.1,0-0.1,0c-0.1,0-0.2,0-0.3,0.1l-0.7,0.4c-0.2,0.1-0.2,0.4,0.1,0.5l0.6,0.2C219.1,138.6,219.2,138.6,219.3,138.6"/>
		<polygon id="XMLID_85_" class="st5" points="219.2,159.3 226.5,155.1 261,174.8 253.7,179 246.4,183.3 211.9,163.5 		"/>
		<path id="XMLID_84_" class="st16" d="M216.4,161.5L216.4,161.5c0,0.1,0.1,0.1,0.1,0.2l0,0c0,0.1,0.1,0.1,0.1,0.2l0.1,0.1l0.1,0.1
			l30.7,17c0.1,0.1,0.2,0.1,0.3,0.1l0.1,0c0.1,0,0.1,0,0.2,0.1c0.1,0,0.1,0,0.2,0.1c0.1,0,0.2,0,0.2,0h0.1c0.1,0,0.2,0,0.3,0h0.1
			c0.1,0,0.2,0,0.3,0h0.1c0.1,0,0.2,0,0.3-0.1h0.1c0.1,0,0.2-0.1,0.3-0.1l0.1,0c0.1,0,0.2-0.1,0.3-0.1l50.1-28.1
			c0.4-0.2,0.6-0.5,0.6-0.8v1.1c0,0.3-0.2,0.6-0.6,0.8L250.4,181c-0.1,0.1-0.2,0.1-0.3,0.1h0l-0.1,0c-0.1,0-0.1,0-0.2,0.1l-0.1,0
			h-0.1h-0.1c-0.1,0-0.1,0-0.2,0h-0.1h-0.1h-0.1c-0.1,0-0.1,0-0.2,0h0H249h-0.1c-0.1,0-0.1,0-0.2,0h0h-0.1c-0.1,0-0.1,0-0.2,0
			l-0.1,0c-0.1,0-0.1,0-0.2-0.1l-0.1,0l-0.1,0l-0.1,0c-0.1,0-0.2-0.1-0.3-0.1l-30.7-17.8h0l-0.1-0.1l-0.1-0.1l0,0l-0.1-0.1l0,0l0,0
			l0-0.1l-0.1-0.1v0v0l0-0.1v-0.1v0v-1.1C216.4,161.4,216.4,161.5,216.4,161.5"/>
		<path id="XMLID_83_" class="st17" d="M217,160.6c-0.8,0.5-0.8,1.2,0,1.6l30.6,17.8c0.8,0.5,2,0.5,2.8,0l50.1-28.9
			c0.8-0.5,0.8-1.2,0-1.6l-30.6-17.8c-0.8-0.5-2-0.5-2.8,0L217,160.6z"/>
		<path id="XMLID_82_" class="st18" d="M217,160.6c-0.8,0.5-0.8,1.2,0,1.6l30.6,17.8c0.8,0.5,2,0.5,2.8,0l50.1-28.9
			c0.8-0.5,0.8-1.2,0-1.6l-30.6-17.8c-0.8-0.5-2-0.5-2.8,0L217,160.6z"/>
		<path id="XMLID_81_" class="st19" d="M245.7,178.9l1.9,1.1c0.8,0.5,2,0.5,2.8,0l50.1-28.9c0.8-0.5,0.8-1.2,0-1.6l-1.7-1
			L245.7,178.9z"/>
		<path id="XMLID_80_" class="st19" d="M217,160.6c-0.8,0.5-0.8,1.2,0,1.6l3,1.7l53.2-30.4l-3.2-1.9c-0.8-0.5-2-0.5-2.8,0L217,160.6
			z"/>
		<path id="XMLID_79_" class="st20" d="M229.6,156c-0.7,0.4-0.7,1,0,1.4l26.8,15.6c0.7,0.4,1.7,0.4,2.4,0l37.7-21.9
			c0.7-0.4,0.7-1,0-1.4L269.7,134c-0.7-0.4-1.7-0.4-2.4,0L229.6,156z"/>
		<path id="XMLID_78_" class="st16" d="M231.4,167.9l0,0.1l0,0.1c0,0.1,0.1,0.1,0.1,0.2l0,0c0,0.1,0.1,0.1,0.1,0.2l0,0
			c0.1,0.1,0.1,0.1,0.1,0.2l0,0c0.1,0.1,0.1,0.1,0.2,0.2l0.1,0.1l0.1,0.1c0.1,0,0.1,0.1,0.2,0.1c0.1,0,0.1,0.1,0.2,0.1
			c0.1,0.1,0.2,0.1,0.3,0.2l0.1,0c0.1,0.1,0.2,0.1,0.3,0.1l0,0c0.1,0,0.2,0.1,0.3,0.1c0.1,0,0.2,0.1,0.2,0.1c0.1,0,0.1,0,0.2,0.1
			c0.1,0,0.2,0,0.3,0.1c0.1,0,0.1,0,0.2,0h0.1c0.1,0,0.2,0,0.3,0.1h0.1c0.1,0,0.1,0,0.2,0c0.1,0,0.2,0,0.3,0c0.1,0,0.1,0,0.2,0
			c0.1,0,0.2,0,0.3,0c0.1,0,0.1,0,0.2,0c0.1,0,0.2,0,0.2,0c0.1,0,0.1,0,0.2,0c0.1,0,0.1,0,0.2,0c0.1,0,0.1,0,0.2,0
			c0.1,0,0.2,0,0.3-0.1c0.1,0,0.1,0,0.2,0c0.1,0,0.2-0.1,0.3-0.1c0.1,0,0.1,0,0.2-0.1l0.1,0c0.1,0,0.2-0.1,0.3-0.1l0.1,0
			c0.1,0,0.2-0.1,0.3-0.1l0.1-0.1c0.1-0.1,0.2-0.1,0.3-0.2c0.9-0.5,1.4-1.2,1.4-1.9v0.7c0,0.7-0.5,1.4-1.4,1.9
			c-0.1,0.1-0.2,0.1-0.3,0.2l-0.1,0.1c-0.1,0-0.1,0.1-0.2,0.1h0l-0.1,0c-0.1,0-0.2,0.1-0.3,0.1l-0.1,0l-0.1,0l-0.1,0
			c-0.1,0-0.2,0.1-0.3,0.1l-0.1,0l-0.1,0c-0.1,0-0.2,0-0.3,0.1l-0.1,0h-0.1c-0.1,0-0.1,0-0.2,0h-0.1h-0.1c-0.1,0-0.1,0-0.2,0h-0.1
			h-0.1c-0.1,0-0.2,0-0.3,0h-0.1h-0.1c-0.1,0-0.2,0-0.3,0h-0.1h-0.1h-0.1c-0.1,0-0.2,0-0.3-0.1h-0.1h0l-0.1,0c-0.1,0-0.2,0-0.3-0.1
			c-0.1,0-0.1,0-0.2-0.1c-0.1,0-0.2-0.1-0.2-0.1l-0.1,0c-0.1,0-0.2-0.1-0.3-0.1l0,0c-0.1,0-0.2-0.1-0.3-0.1l-0.1,0
			c-0.1-0.1-0.2-0.1-0.3-0.2l-0.1,0l-0.1-0.1c-0.1,0-0.1-0.1-0.2-0.1l-0.1-0.1l-0.1-0.1l0,0c-0.1-0.1-0.1-0.1-0.2-0.2l0,0l-0.1-0.1
			l-0.1-0.1l0,0c0-0.1-0.1-0.1-0.1-0.2l0-0.1l0,0c0-0.1-0.1-0.1-0.1-0.2v0l0-0.1l0-0.1v0v0c0-0.1,0-0.1,0-0.2v0v-0.7
			c0,0.1,0,0.2,0,0.2L231.4,167.9z"/>
		<path id="XMLID_77_" class="st19" d="M232.8,165.7c-1.8,1.1-1.8,2.8,0,3.8c1.8,1.1,4.8,1.1,6.6,0c1.8-1.1,1.8-2.8,0-3.8
			C237.6,164.6,234.6,164.6,232.8,165.7"/>
		<path id="XMLID_76_" class="st18" d="M233.4,169.8c1.8,0.7,4.3,0.7,6-0.3c1.7-0.9,1.8-2.4,0.5-3.5c-1.8-0.7-4.4-0.7-6,0.3
			C232.2,167.3,232.1,168.8,233.4,169.8"/>
		<path id="XMLID_75_" class="st21" d="M291.6,149l0.1-0.2l1.7,1c0.2,0.1,0.2,0.4,0,0.5l-1.8,1l-0.1-0.2l1.5-0.9
			c0.2-0.1,0.2-0.4,0-0.5L291.6,149z"/>
		<path id="XMLID_74_" class="st21" d="M257.4,170.6c0.2,0.1,0.4,0.1,0.6,0l1-0.6l0.1,0.2l-1.1,0.6c-0.2,0.1-0.4,0.1-0.6,0l-1-0.6
			l0.1-0.2L257.4,170.6z"/>
		<path id="XMLID_73_" class="st21" d="M233.6,155.8l0.1,0.2l-1.1,0.7c-0.1,0.1-0.1,0.2,0,0.2l0.7,0.4l-0.1,0.2l-1-0.6
			c-0.1-0.1-0.1-0.2,0-0.2L233.6,155.8z"/>
		<path id="XMLID_72_" class="st21" d="M269.6,136.8l-0.1,0.2l-1.1-0.7c-0.2-0.1-0.4-0.1-0.6,0l-1.1,0.7l-0.1-0.2l1.2-0.7
			c0.2-0.1,0.4-0.1,0.6,0L269.6,136.8z"/>
		<path class="st16" d="M230.3,163c0.3,0.1,0.3,0.5,0,0.6l-1.7,1l0,0c-0.1,0-0.2,0-0.3,0l0,0l-0.9-0.5c-0.3-0.1-0.3-0.5,0-0.6l1.7-1
			l0,0c0.1,0,0.2,0,0.3,0l0,0L230.3,163z M228.8,162.1c0.3,0.1,0.3,0.5,0,0.6l-1.7,1l0,0c-0.1,0-0.2,0-0.3,0l0,0l-0.9-0.5
			c-0.3-0.1-0.3-0.5,0-0.6l1.7-1l0,0c0.1,0,0.2,0,0.3,0l0,0L228.8,162.1z M227.2,161.2c0.3,0.1,0.3,0.5,0,0.6l-1.7,1l0,0
			c-0.1,0-0.2,0-0.3,0l0,0l-0.9-0.5c-0.3-0.1-0.3-0.5,0-0.6l1.7-1l0,0c0.1,0,0.2,0,0.3,0l0,0L227.2,161.2z M225.6,160.3
			c0.3,0.1,0.3,0.5,0,0.6l-1.7,1l0,0c-0.1,0-0.2,0-0.3,0l0,0l-0.9-0.5c-0.3-0.1-0.3-0.5,0-0.6l1.7-1l0,0c0.1,0,0.2,0,0.3,0l0,0
			L225.6,160.3z"/>
		<path id="XMLID_67_" class="st19" d="M224.5,159.9l-1.7,1c-0.2,0.1-0.2,0.3,0,0.4l0.9,0.5c0.1,0,0.1,0,0.2,0l1.7-1
			c0.2-0.1,0.2-0.3,0-0.4l-0.9-0.5C224.6,159.9,224.6,159.9,224.5,159.9"/>
		<path id="XMLID_66_" class="st19" d="M226,160.8l-1.7,1c-0.2,0.1-0.2,0.3,0,0.4l0.9,0.5c0.1,0,0.1,0,0.2,0l1.7-1
			c0.2-0.1,0.2-0.3,0-0.4l-0.9-0.5C226.2,160.8,226.1,160.8,226,160.8"/>
		<path id="XMLID_65_" class="st19" d="M227.6,161.7l-1.7,1c-0.2,0.1-0.2,0.3,0,0.4l0.9,0.5c0.1,0,0.1,0,0.2,0l1.7-1
			c0.2-0.1,0.2-0.3,0-0.4l-0.9-0.5C227.8,161.7,227.7,161.7,227.6,161.7"/>
		<path id="XMLID_64_" class="st19" d="M229.2,162.6l-1.7,1c-0.2,0.1-0.2,0.3,0,0.4l0.9,0.5c0.1,0,0.1,0,0.2,0l1.7-1
			c0.2-0.1,0.2-0.3,0-0.4l-0.9-0.5C229.3,162.6,229.2,162.6,229.2,162.6"/>
		<path id="XMLID_63_" class="st22" d="M234.4,166.6c-0.9,0.5-0.9,1.4,0,2c0.9,0.5,2.5,0.5,3.4,0c0.9-0.5,0.9-1.4,0-2
			C236.8,166.1,235.3,166.1,234.4,166.6"/>
		<path class="st16" d="M250.2,174.6c0.3,0.1,0.3,0.5,0,0.6l-1.7,1l0,0c-0.1,0-0.2,0-0.3,0l0,0l-0.9-0.5c-0.3-0.1-0.3-0.5,0-0.6
			l1.7-1l0,0c0.1,0,0.2,0,0.3,0l0,0L250.2,174.6z M248.6,173.7c0.3,0.1,0.3,0.5,0,0.6l-1.7,1l0,0c-0.1,0-0.2,0-0.3,0l0,0l-0.9-0.5
			c-0.3-0.1-0.3-0.5,0-0.6l1.7-1l0,0c0.1,0,0.2,0,0.3,0l0,0L248.6,173.7z M247,172.8c0.3,0.1,0.3,0.5,0,0.6l-1.7,1l0,0
			c-0.1,0-0.2,0-0.3,0l0,0l-0.9-0.5c-0.3-0.1-0.3-0.5,0-0.6l1.7-1l0,0c0.1,0,0.2,0,0.3,0l0,0L247,172.8z M245.5,171.9
			c0.3,0.1,0.3,0.5,0,0.6l-1.7,1l0,0c-0.1,0-0.2,0-0.3,0l0,0l-0.9-0.5c-0.3-0.1-0.3-0.5,0-0.6l1.7-1l0,0c0.1,0,0.2,0,0.3,0l0,0
			L245.5,171.9z"/>
		<path id="XMLID_58_" class="st19" d="M244.3,171.5l-1.7,1c-0.2,0.1-0.2,0.3,0,0.4l0.9,0.5c0.1,0,0.1,0,0.2,0l1.7-1
			c0.2-0.1,0.2-0.3,0-0.4l-0.9-0.5C244.5,171.5,244.4,171.5,244.3,171.5"/>
		<path id="XMLID_57_" class="st19" d="M245.9,172.4l-1.7,1c-0.2,0.1-0.2,0.3,0,0.4l0.9,0.5c0.1,0,0.1,0,0.2,0l1.7-1
			c0.2-0.1,0.2-0.3,0-0.4l-0.9-0.5C246,172.4,246,172.4,245.9,172.4"/>
		<path id="XMLID_56_" class="st19" d="M247.5,173.3l-1.7,1c-0.2,0.1-0.2,0.3,0,0.4l0.9,0.5c0.1,0,0.1,0,0.2,0l1.7-1
			c0.2-0.1,0.2-0.3,0-0.4l-0.9-0.5C247.6,173.3,247.5,173.3,247.5,173.3"/>
		<path id="XMLID_55_" class="st19" d="M249,174.2l-1.7,1c-0.2,0.1-0.2,0.3,0,0.4l0.9,0.5c0.1,0,0.1,0,0.2,0l1.7-1
			c0.2-0.1,0.2-0.3,0-0.4l-0.9-0.5C249.2,174.2,249.1,174.2,249,174.2"/>
		<path id="XMLID_54_" class="st23" d="M234.5,166.7c-0.9,0.5-0.9,1.3,0,1.8c0.9,0.5,2.3,0.5,3.2,0c0.9-0.5,0.9-1.3,0-1.8
			C236.8,166.2,235.4,166.2,234.5,166.7"/>
		<polygon id="XMLID_53_" class="st5" points="218.4,96.5 221.7,94.6 264.8,119.4 261.4,121.3 258.2,123.2 215.1,98.4 		"/>
		<polygon id="XMLID_52_" class="st18" points="287.3,105.3 246.6,81.6 218.8,97.7 259.5,121.3 		"/>
		<polygon id="XMLID_51_" class="st18" points="285.5,100.9 286.4,100.4 286.4,105.8 285.5,105.3 		"/>
		<polygon id="XMLID_50_" class="st18" points="287.3,99.9 246.6,76.2 218.8,92.3 259.5,115.9 		"/>
		<polygon id="XMLID_49_" class="st16" points="287.3,99.9 259.5,115.9 259.5,117 287.3,100.9 		"/>
		<polygon id="XMLID_48_" class="st16" points="259.5,117 218.8,93.4 218.8,92.3 259.5,115.9 259.5,115.9 		"/>
		<polygon id="XMLID_47_" class="st16" points="287.3,105.3 259.5,121.3 259.5,122.4 287.3,106.3 		"/>
		<polygon id="XMLID_46_" class="st16" points="259.5,122.4 218.8,98.8 218.8,97.6 259.5,121.3 259.5,121.3 		"/>
		<polygon id="XMLID_45_" class="st16" points="287.3,99.9 286.4,100.4 286.4,106.8 287.3,106.3 		"/>
		<polygon id="XMLID_44_" class="st24" points="285.5,102 259.5,117 259.5,120.3 285.5,105.3 		"/>
		<polygon id="XMLID_43_" class="st25" points="220.3,94.2 259.6,117 259.6,120.3 220.3,97.6 		"/>
		<polygon id="XMLID_42_" class="st26" points="282.7,102.5 282.7,103.6 283.7,103 283.7,102 		"/>
		<polygon id="XMLID_41_" class="st27" points="242,78.9 282.7,102.5 283.7,102 243,78.3 		"/>
		<path id="XMLID_40_" class="st5" d="M114.2,185.1c6.9,0,12.4,2.6,12.4,5.8s-5.5,5.8-12.4,5.8c-6.9,0-12.4-2.6-12.4-5.8
			C101.8,187.7,107.3,185.1,114.2,185.1"/>
		<path id="XMLID_39_" class="st28" d="M126.2,175.3v-0.5v0v0c0,0-18.2,0.1-18.1-0.1v16.9l0,0c0.1,1.3,1,2.6,2.7,3.5
			c3.5,2.1,9.3,2.1,12.8,0c1.7-1,2.6-2.3,2.6-3.5l0,0L126.2,175.3L126.2,175.3z"/>
		<path id="XMLID_38_" class="st29" d="M119.3,174.9c-5.1,0-11.2,0-11.1-0.1v16.9l0,0c0.1,1.3,1,2.6,2.7,3.5
			c2.3,1.3,5.5,1.8,8.5,1.4V174.9z"/>
		<path id="XMLID_37_" class="st30" d="M123.6,171.1c3.5,2.1,3.6,5.4,0,7.4c-3.5,2.1-9.3,2.1-12.8,0c-3.5-2.1-3.6-5.4,0-7.4
			C114.3,169.1,120,169.1,123.6,171.1"/>
		<path id="XMLID_36_" class="st29" d="M122.7,171.7c3,1.7,3.1,4.6,0,6.3s-7.9,1.7-11,0c-3-1.7-3.1-4.6,0-6.3
			C114.7,169.9,119.6,169.9,122.7,171.7"/>
		<path id="XMLID_35_" class="st31" d="M122.7,174.5c-3-1.7-7.9-1.7-11,0c-0.9,0.5-1.5,1.1-1.9,1.7c0.4,0.7,1,1.3,1.9,1.8
			c3,1.7,7.9,1.7,11,0c0.9-0.5,1.5-1.1,1.9-1.7C124.2,175.6,123.5,175,122.7,174.5"/>
		<path id="XMLID_34_" class="st32" d="M110.1,176.7c0.4,0.5,0.9,0.9,1.6,1.3c3,1.7,7.9,1.7,11,0c0.7-0.4,1.2-0.8,1.6-1.3
			c-0.4-0.5-0.9-0.9-1.6-1.3c-3-1.7-7.9-1.7-11,0C111,175.8,110.5,176.2,110.1,176.7"/>
		<path id="XMLID_33_" class="st33" d="M129,191L129,191c0,0-0.1,0-0.1,0l0,0c0,0-0.1,0-0.1,0l0,0c-0.1,0-0.1,0-0.1-0.1l-4.1-2.4
			l-1.6,0.9l4.1,2.4h0l0,0h0h0h0l0,0l0,0h0h0h0h0h0l0,0l0,0h0h0h0l0,0l0,0h0.1l0.1,0L129,191L129,191z"/>
		<path id="XMLID_32_" class="st29" d="M127,183.4c1.1,0.6,2,2.2,2,3.4l0,5.3c0,1.3-0.9,1.8-2,1.1l-4.1-2.4v-1.5l4.1,2.4
			c0.4,0.2,0.7,0.1,0.7-0.4l0-5.3c0-0.5-0.3-1-0.7-1.2l-4.1-2.4V181L127,183.4z"/>
		<path id="XMLID_31_" class="st30" d="M130.6,185.9L130.6,185.9v-0.1v0v0v-0.1v-0.1l0,0l0,0l0-0.1l0-0.1v0v0v-0.1l0-0.1l0-0.1l0,0
			l0,0l0-0.1l0-0.1v0v0l0-0.1l0-0.1l0-0.1l0,0l0,0l-0.1-0.1l-0.1-0.1v0v0l-0.1-0.1l-0.1-0.1l0-0.1v0l-0.1-0.1c0-0.1-0.1-0.1-0.1-0.1
			v0c0-0.1-0.1-0.1-0.1-0.2l-0.2-0.1l-0.1-0.1l0,0l0,0l-0.1-0.1l-0.1-0.1l0,0l0,0l-0.1-0.1l-0.1-0.1l0,0l0,0l0,0l-0.1-0.1l0,0l0,0
			l0,0l-0.1-0.1l-0.1-0.1l0,0l0,0l-0.1-0.1l-0.1-0.1h0l-4.1-2.4l-1.6,0.9l4.1,2.4c0.1,0,0.1,0.1,0.2,0.1l0,0c0.1,0,0.1,0.1,0.2,0.1
			l0,0c0.1,0.1,0.1,0.1,0.2,0.1l0,0c0.1,0.1,0.1,0.1,0.2,0.2v0c0.1,0.1,0.1,0.1,0.2,0.2l0,0c0.1,0.1,0.1,0.1,0.2,0.2l0,0l0,0
			c0.1,0.1,0.1,0.1,0.1,0.2c0,0,0.1,0.1,0.1,0.1l0.1,0.1l0,0.1c0,0.1,0.1,0.1,0.1,0.2v0c0,0.1,0.1,0.1,0.1,0.2l0,0
			c0,0.1,0.1,0.1,0.1,0.2v0c0,0.1,0.1,0.2,0.1,0.2v0c0,0.1,0,0.1,0.1,0.2v0c0,0.1,0,0.1,0.1,0.2l0,0c0,0.1,0,0.1,0,0.2v0
			c0,0.1,0,0.1,0,0.2l0,5.3c0,0.1,0,0.1,0,0.2v0c0,0.1,0,0.1,0,0.2v0c0,0.1,0,0.1-0.1,0.2v0c0,0.1,0,0.1-0.1,0.1v0
			c0,0.1-0.1,0.1-0.1,0.1c0,0.1-0.1,0.1-0.1,0.2l0,0c-0.1,0.1-0.1,0.1-0.2,0.1l1.6-0.9c0.1,0,0.1-0.1,0.2-0.1l0,0
			c0.1-0.1,0.1-0.1,0.1-0.2l0,0c0-0.1,0.1-0.1,0.1-0.1l0,0v0l0-0.1l0-0.1v0v0l0-0.1v0v0v0v-0.1v-0.1v0v0v-0.1v-0.1l0,0l0-5.3
			L130.6,185.9z"/>
		<path class="st5" d="M318,131C318,131,318,131,318,131 M318.3,130.7L318.3,130.7L318.3,130.7z M318.3,130.7
			C318.3,130.7,318.3,130.7,318.3,130.7C318.3,130.7,318.3,130.7,318.3,130.7z M318.3,130.7L318.3,130.7L318.3,130.7z M318.3,130.8
			C318.3,130.8,318.3,130.7,318.3,130.8C318.3,130.7,318.3,130.8,318.3,130.8z M318.2,130.8C318.2,130.8,318.2,130.8,318.2,130.8
			C318.2,130.8,318.2,130.8,318.2,130.8z M318.2,130.8C318.2,130.8,318.2,130.8,318.2,130.8C318.2,130.8,318.2,130.8,318.2,130.8z
			 M318.2,130.8C318.2,130.8,318.2,130.8,318.2,130.8C318.2,130.8,318.2,130.8,318.2,130.8z M318.1,130.9L318.1,130.9L318.1,130.9
			L318.1,130.9L318.1,130.9C318.1,130.8,318.1,130.8,318.1,130.9L318.1,130.9C318.1,130.8,318.2,130.8,318.1,130.9
			C318.2,130.8,318.1,130.8,318.1,130.9 M318,130.9C318.1,130.9,318.1,130.9,318,130.9C318.1,130.9,318.1,130.9,318,130.9z
			 M318,129.5l-23.5-13.7c-0.7-0.4-1.9-0.4-2.6,0l-9.4,5.3c-0.8,0.5-3.1,1.5-1.9,2.6c0.1,0,0.1,0.1,0.1,0.1l0.1,0.1h0l24.4,14.2
			c0.1,0.1,0.2,0.1,0.4,0.2l0,0l0.1,0c0.1,0,0.1,0,0.2,0.1l0.1,0c0.1,0,0.1,0,0.1,0h0.1h0c0.1,0,0.1,0,0.2,0h0.1h0.1h0.1
			c0.1,0,0.1,0,0.2,0h0.1h0.1h0.1c0.1,0,0.1,0,0.2,0h0.1h0.1l0.1,0c0.1,0,0.1,0,0.2-0.1l0.1,0h0c0.1,0,0.2-0.1,0.3-0.1l10.2-5.5
			c0.4-0.2,0.5-0.5,0.5-0.7v-1.7C318.5,130,318.3,129.7,318,129.5z"/>
		<path id="XMLID_19_" class="st34" d="M320.1,128.2l-23.5-13.7c-0.7-0.4-1.9-0.4-2.6,0l-9.8,5.7c-0.7,0.4-0.7,1.1,0,1.5l23.5,13.7
			c0.7,0.4,1.9,0.4,2.6,0l9.8-5.7C320.8,129.3,320.8,128.6,320.1,128.2"/>
		<path id="XMLID_18_" class="st35" d="M312.4,130.9c-0.6,0.3-0.6,0.9,0,1.3c0.6,0.3,1.6,0.3,2.2,0c0.6-0.3,0.6-0.9,0-1.3
			C314,130.6,313,130.6,312.4,130.9"/>
		<polygon id="XMLID_17_" class="st20" points="286.1,122 306,133.5 316.9,127.2 297,115.7 		"/>
		<path id="XMLID_16_" class="st5" d="M320.7,129c0,0.3-0.2,0.5-0.5,0.7l-9.8,5.7c-0.1,0.1-0.2,0.1-0.3,0.1l-0.1,0
			c-0.1,0-0.2,0.1-0.3,0.1h-0.1c-0.1,0-0.2,0-0.3,0.1h-0.1c-0.1,0-0.2,0-0.3,0h-0.1c-0.1,0-0.2,0-0.3,0h-0.1c-0.1,0-0.1,0-0.2,0
			c-0.1,0-0.1,0-0.2-0.1c-0.1,0-0.1,0-0.1,0c-0.1-0.1-0.3-0.1-0.4-0.2l-23.5-13.7c0,0-0.1-0.1-0.1-0.1c-0.1,0-0.1-0.1-0.1-0.1
			c-0.1-0.1-0.1-0.1-0.1-0.2l0,0c0-0.1-0.1-0.1-0.1-0.2v0c0-0.1,0-0.1,0-0.2v1.7v0v0.1l0,0.1v0v0l0.1,0.1l0,0.1l0,0l0,0
			c0,0,0.1,0.1,0.1,0.1l0,0c0,0,0.1,0.1,0.1,0.1l0.1,0.1h0l23.5,13.7c0.1,0.1,0.2,0.1,0.4,0.2l0,0l0.1,0c0.1,0,0.1,0,0.2,0.1l0.1,0
			c0.1,0,0.1,0,0.1,0h0.1h0c0.1,0,0.1,0,0.2,0h0.1h0.1h0.1c0.1,0,0.1,0,0.2,0h0.1h0.1h0.1c0.1,0,0.1,0,0.2,0h0.1h0.1l0.1,0
			c0.1,0,0.1,0,0.2-0.1l0.1,0h0c0.1,0,0.2-0.1,0.3-0.1l9.8-5.7c0.4-0.2,0.5-0.5,0.5-0.7L320.7,129z"/>
		<path id="XMLID_15_" class="st36" d="M137.3,173.6c-0.6,0-1.1-0.1-1.6-0.4l-44.8-26c-1.1-0.5-1.7-1.6-1.7-2.6
			c0-1.1,0.6-2.1,1.7-2.6l47.9-27.5v58.8v0C138.3,173.5,137.8,173.6,137.3,173.6"/>
		<path id="XMLID_14_" class="st7" d="M179.3,142l-15.5,7.1c-1.1,0.5-1.2,1.9-0.3,2.6l16.4,12.6c1.6,1.2,3.8,1.5,5.6,0.6l19.4-11.4
			c1.3-0.6,1.5-3.1,0.1-3.6l-24.6-8C180,141.9,179.6,141.9,179.3,142"/>
		<path id="XMLID_13_" class="st37" d="M180.4,142c-0.4-0.1-0.8-0.1-1.1,0.1l-15.5,7.1c-1.1,0.5-1.2,1.9-0.3,2.6l16.4,12.6
			c1.4,1.1,3.1,1.4,4.7,0.9v-22L180.4,142z"/>
		<path id="XMLID_12_" class="st38" d="M180.4,142c-0.4-0.1-0.8-0.1-1.1,0.1l-15.5,7.1c-1.1,0.5-1.2,1.9-0.3,2.6l16.4,12.6
			c0.2,0.1,0.4,0.3,0.6,0.4V142L180.4,142z"/>
		<path id="XMLID_11_" class="st8" d="M179.3,141l-15.5,7.1c-1.1,0.5-1.2,1.9-0.3,2.6l16.4,12.6c1.6,1.2,3.8,1.5,5.6,0.6l19.4-11.4
			c1.3-0.6,1.2-2.4-0.2-2.9l-24.3-8.7C180,140.8,179.6,140.8,179.3,141"/>
		<path id="XMLID_10_" class="st39" d="M182,141.5c-0.4-0.1-0.8-0.1-1.1,0.1l-15.5,7.1c-1.1,0.5-1.6,2.5-0.7,3.2l10,7.5l21.1-12.9
			L182,141.5z"/>
		<path id="XMLID_9_" class="st8" d="M133.7,97.9v71.1c0,2.1,3.4,4.7,5.4,3.8l83.1-49.9c1.1-0.5,1.7-1.5,1.7-2.7l1.7-73.2
			c0-2.1-3.9-3.4-5.9-2.5l-82.6,48C135,93.6,133.7,95.7,133.7,97.9"/>
		<path id="XMLID_8_" class="st40" d="M137,92.7c-2,0.9-3.3,3-3.3,5.2v71.1c0,2.1,3.4,4.7,5.4,3.8l8.3-4V94.3L137,92.7z"/>
		<path id="XMLID_7_" class="st41" d="M135.8,99.2v71.1c0,2.1,2.2,3.6,4.2,2.7l84.3-48.7c1.1-0.5,1.7-1.5,1.7-2.7V48.7
			c0-2.1-2.2-3.6-4.2-2.7l-82.6,48C137.1,94.9,135.8,97,135.8,99.2"/>
		<path id="XMLID_6_" class="st7" d="M135.8,170.3c0,2.1,2.2,3.6,4.2,2.7l84.3-48.7c1.1-0.5,1.7-1.5,1.7-2.7V112l-90.2,51.5V170.3z"
			/>
		<path id="XMLID_5_" class="st42" d="M138.8,173.3c-1.5,0-2.9-1.3-2.9-3v-1.1c0,1.7,1.4,3,2.9,3c0.4,0,0.8-0.1,1.2-0.3l84.3-48.7
			c1.1-0.5,1.7-1.5,1.7-2.7v1.1c0,1.2-0.7,2.2-1.7,2.7L140,173C139.6,173.2,139.2,173.3,138.8,173.3"/>
		<path id="XMLID_4_" class="st43" d="M139.7,99v57c0,0.9,0.9,1.5,1.7,1.1l80.3-46.5c0.4-0.2,0.7-0.6,0.7-1.1v-57
			c0-0.9-0.9-1.5-1.7-1.1l-80.3,46.5C140,98.1,139.7,98.5,139.7,99"/>
		<path id="XMLID_3_" class="st44" d="M139.7,99v57c0,0.6,0.4,1.1,0.9,1.2l81.6-105.5c-0.3-0.5-0.9-0.7-1.5-0.4l-80.3,46.5
			C140,98.1,139.7,98.5,139.7,99"/>
		<path id="XMLID_2_" class="st45" d="M180.2,144.8c-0.5,0-1-0.4-1-1v-1.8c0-0.4,0.2-0.7,0.6-0.9l1.3-0.6c0.1-0.1,0.3-0.1,0.4-0.1
			c0.5,0,1,0.4,1,1v1.8c0,0.4-0.2,0.7-0.6,0.9l-1.3,0.6C180.5,144.8,180.4,144.8,180.2,144.8"/>
	</g>
</g>
</svg>
