<?xml version="1.0" encoding="utf-8"?>
<!-- Generator: Adobe Illustrator 21.1.0, SVG Export Plug-In . SVG Version: 6.00 Build 0)  -->
<svg version="1.1" id="Layer_1" xmlns="http://www.w3.org/2000/svg" xmlns:xlink="http://www.w3.org/1999/xlink" x="0px" y="0px"
	 viewBox="0 0 342.8 257" style="enable-background:new 0 0 342.8 257;" xml:space="preserve">
<style type="text/css">
	.st0{fill:#A2ABE7;}
	.st1{fill:#9D7A6E;}
	.st2{fill:#242751;}
	.st3{fill:#FFFFFF;}
	.st4{fill:#C6C8C8;}
	.st5{fill:#B8BBBB;}
	.st6{fill:#9C9791;}
	.st7{fill:#F0F1F1;}
	.st8{fill:#CACDCD;}
	.st9{fill:#F0EBE6;}
	.st10{fill:#E5DFDA;}
	.st11{fill:#E7E2DD;}
	.st12{fill:#EDE8E5;}
	.st13{fill:#D3D1CE;}
	.st14{fill:#FFFDFD;}
	.st15{fill:#DED7D3;}
	.st16{fill:#2D3534;}
	.st17{fill:#3E5969;}
	.st18{fill:#484E4D;}
	.st19{fill:#3E4443;}
	.st20{fill:#2F3635;}
	.st21{fill:#595857;}
	.st22{fill:#302F2F;}
	.st23{fill:#5D6261;}
	.st24{fill:#DBD2D1;}
	.st25{fill:#D2C8C6;}
	.st26{fill:#72190A;}
	.st27{fill:#8C200C;}
	.st28{fill:#BCBEBD;}
	.st29{fill:#CDCFCA;}
	.st30{fill:#FCFAFF;}
	.st31{fill:#412F25;}
	.st32{fill:#523C2E;}
	.st33{fill:#DADCDA;}
	.st34{fill:#D2D3D5;}
	.st35{fill:#B4B5B5;}
	.st36{fill:#141D51;}
	.st37{fill:#E0DAD7;}
	.st38{fill:#A5A098;}
	.st39{fill:#B3B7B7;}
	.st40{fill:#BBB5AD;}
	.st41{fill:#212939;}
	.st42{fill:#D7D3CF;}
	.st43{fill:#323F56;}
	.st44{fill:#3A475E;}
	.st45{fill:#636B79;}
</style>
<g id="XMLID_1_">
	<rect id="XMLID_199_" x="0.3" class="st0" width="342.2" height="256.7"/>
	<g>
		<polygon id="XMLID_198_" class="st1" points="316.3,111 199.4,42.4 26.4,142.3 26.4,145.8 144.3,213.8 316.3,114.5 		"/>
		<polygon id="XMLID_197_" class="st2" points="26.5,142.3 144.5,210.2 316.4,111 199.5,42.4 		"/>
		<polygon id="XMLID_196_" class="st3" points="26.5,142.2 144.5,210.2 144.5,213.8 26.5,145.7 		"/>
		<polygon id="XMLID_195_" class="st4" points="316.4,110.9 144.5,210.2 144.5,213.8 316.4,114.5 		"/>
		<path class="st5" d="M128.1,179.3l-4.2-2c-0.8-0.3-0.8-1.4,0-1.7l51.9-30c0.1-0.1,0.3-0.1,0.4-0.1c0.1,0,0.3,0,0.4,0.1l1.4,0.7
			l-49.2,28.5c0,0-0.1,0-0.1,0.1c-1,0.3-1.7,1.4-1.5,2.7C127.3,178.2,127.6,178.8,128.1,179.3 M148.2,188.4L130,180
			c0.1,0,0.1,0,0.2,0l0,0c0.3,0,0.7-0.1,0.9-0.2l0,0l2.1-0.9L148.2,188.4z M149.2,188.9c-0.1,0-0.3,0-0.3-0.1
			C149,188.9,149.1,188.9,149.2,188.9c0.1,0,0.2,0,0.3,0C149.4,188.9,149.3,188.9,149.2,188.9L149.2,188.9z"/>
		<polygon id="XMLID_191_" class="st6" points="137.9,174.6 129.7,178.3 131.1,180 139.4,176.2 		"/>
		<path id="XMLID_190_" class="st7" d="M177.9,146.9l-49.2,28c-0.3,0.2-0.3,1.1,0,1.3l19.7,12.4c0.5,0.3,1.1,0.3,1.6,0l48.8-28.3
			c0.3-0.2,0.4-1.1,0.1-1.3l-20.1-12.2C178.5,146.8,178.2,146.8,177.9,146.9"/>
		<path id="XMLID_189_" class="st8" d="M177.9,146.3l-49.2,28.5c-0.3,0.2-0.3,0.7,0,0.9l19.7,12.4c0.5,0.3,1.1,0.3,1.6,0l48.8-28.3
			c0.3-0.2,0.3-0.7,0-0.9l-20.1-12.6C178.5,146.2,178.2,146.2,177.9,146.3"/>
		<path class="st9" d="M137.4,179.8c-0.3-0.2-0.6-0.4-0.9-0.6C136.8,179.4,137.1,179.6,137.4,179.8 M186.3,162.4
			c-0.3,0.2-0.3,0.3-0.1,0.5c0.1,0.1,0.2,0.1,0.3,0.2c0.3,0.2,0.6,0.1,0.9-0.1c0.5-0.3,1.1-0.6,1.6-0.9c0.3-0.2,0.3-0.3,0.1-0.4
			c-0.1-0.1-0.2-0.1-0.3-0.2c-0.3-0.2-0.6-0.1-0.9,0C187.4,161.8,186.8,162.2,186.3,162.4z M160.9,175.2c-0.3,0.2-0.3,0.4-0.1,0.5
			c0.5,0.3,1.1,0.7,1.6,1c0.2,0.1,0.6,0.1,0.9,0c4.8-2.7,9.7-5.4,14.6-8.1c0.3-0.2,0.3-0.4,0.2-0.5c-0.6-0.3-1.1-0.7-1.6-1.1
			c-0.3-0.2-0.6-0.1-0.9,0C170.6,169.7,165.7,172.4,160.9,175.2z M181.6,163.5c-0.3,0.2-0.3,0.4-0.1,0.5c0.5,0.3,1.1,0.8,1.6,1.1
			c0.2,0.2,0.6,0.1,0.9,0c0.6-0.3,1.2-0.7,1.8-1c0.3-0.2,0.3-0.4,0.1-0.5c-0.5-0.3-1.1-0.8-1.6-1.1c-0.3-0.2-0.6-0.1-0.9,0
			C182.9,162.8,182.3,163.2,181.6,163.5z M157,177.4c-0.3,0.2-0.3,0.3-0.1,0.5c0.5,0.3,1.1,0.7,1.6,1c0.3,0.1,0.6,0.1,0.9,0
			c0.7-0.4,1.5-0.8,2.1-1.2c0.3-0.2,0.3-0.4,0.1-0.5c-0.6-0.3-1.1-0.7-1.6-1c-0.2-0.2-0.6-0.1-0.9,0
			C158.4,176.5,157.7,177,157,177.4z M177.4,165.9c-0.3,0.2-0.3,0.4-0.1,0.5c0.5,0.3,1.1,0.8,1.6,1.1c0.3,0.2,0.6,0.1,0.9,0
			c0.8-0.4,1.6-0.9,2.4-1.3c0.3-0.2,0.3-0.4,0.2-0.5c-0.5-0.3-1.1-0.7-1.6-1.1c-0.3-0.2-0.6-0.1-0.9,0
			C179,165,178.2,165.4,177.4,165.9z M147.8,179.8c-0.2-0.1-0.6-0.1-0.9,0c-1.2,0.7-2.3,1.3-3.5,2c-0.3,0.2-0.3,0.3-0.1,0.5
			c0.4,0.3,0.9,0.5,1.3,0.8c0.2,0.1,0.6,0.1,0.9,0c1.1-0.6,2.3-1.3,3.4-2c0.3-0.2,0.3-0.3,0.1-0.5
			C148.7,180.3,148.3,180,147.8,179.8z M153.4,179.4c-0.3,0.2-0.3,0.3-0.1,0.5c0.5,0.3,1.1,0.7,1.6,1c0.2,0.1,0.6,0.1,0.9,0
			c0.6-0.3,1.3-0.7,1.9-1c0.3-0.2,0.3-0.3,0.1-0.5c-0.5-0.3-1.1-0.7-1.6-1c-0.2-0.1-0.6-0.1-0.9,0C154.6,178.7,154,179,153.4,179.4z
			 M150,181.2c-0.3,0.2-0.3,0.3-0.1,0.5c0.5,0.3,1.1,0.7,1.6,1c0.2,0.1,0.6,0.1,0.9,0c0.5-0.3,1.1-0.6,1.6-0.9
			c0.3-0.2,0.3-0.3,0.1-0.5c-0.5-0.3-1.1-0.7-1.6-1c-0.2-0.1-0.6-0.1-0.9,0C151.1,180.6,150.6,181,150,181.2z M146.2,183.5
			c-0.3,0.2-0.3,0.3-0.1,0.5c0.5,0.3,1.1,0.7,1.6,1c0.2,0.1,0.6,0.1,0.9,0c0.8-0.4,1.5-0.8,2.1-1.2c0.3-0.2,0.3-0.3,0.1-0.5
			c-0.5-0.3-1.1-0.7-1.6-1c-0.2-0.1-0.6-0.1-0.9,0C147.6,182.6,146.9,183,146.2,183.5z M169.3,161c-0.2,0-0.3,0-0.6,0.2
			c-0.6,0.3-1.3,0.8-1.9,1.1c-0.3,0.2-0.3,0.4-0.1,0.5c0.3,0.2,0.6,0.4,0.9,0.6c0.3,0.2,0.4,0.2,0.4,0.2s0.3,0,0.5-0.2
			c0.6-0.3,1.3-0.7,1.9-1.1c0.3-0.2,0.3-0.4,0.1-0.5c-0.3-0.2-0.6-0.4-0.9-0.6C169.5,161,169.5,161,169.3,161z M189.2,160.9
			c-0.3,0.1-0.3,0.3-0.1,0.4c0.1,0.1,0.2,0.1,0.3,0.2c0.3,0.2,0.7,0.1,0.9-0.1c0.6-0.3,1.1-0.6,1.7-0.9c0.2-0.1,0.3-0.3,0.1-0.4
			c-0.1-0.1-0.2-0.1-0.3-0.2c-0.3-0.2-0.7-0.2-0.9,0.1C190.3,160.3,189.7,160.5,189.2,160.9z M163,164.4c-0.3,0.2-0.3,0.4-0.1,0.5
			c0.3,0.3,0.7,0.4,1,0.7c0.3,0.2,0.4,0.1,0.4,0.2c0,0,0.2,0,0.4-0.2c0.7-0.4,1.4-0.8,2-1.1c0.3-0.2,0.3-0.4,0.1-0.5
			c-0.3-0.3-0.7-0.4-1-0.7c-0.3-0.2-0.6-0.1-0.9,0C164.3,163.7,163.7,164,163,164.4z M161.7,165.3c0,0-0.2,0-0.5,0.2
			c-0.7,0.4-1.3,0.8-2,1.1c-0.3,0.2-0.3,0.4-0.1,0.5c0.3,0.3,0.7,0.4,1,0.7c0.3,0.2,0.6,0.1,0.9,0c0.7-0.3,1.3-0.8,2-1.1
			c0.3-0.2,0.3-0.4,0.1-0.5c-0.3-0.3-0.7-0.4-0.9-0.6C161.9,165.3,161.7,165.3,161.7,165.3z M178.5,157.7c0.3-0.2,0.3-0.4,0.1-0.6
			c-0.3-0.3-0.7-0.4-1-0.7c-0.3-0.2-0.6-0.1-0.9,0c-0.7,0.4-1.4,0.8-2.1,1.2c-0.3,0.2-0.3,0.4-0.1,0.6c0.3,0.3,0.7,0.4,1,0.7
			c0.2,0.2,0.6,0.1,0.9,0C177.2,158.6,177.9,158.1,178.5,157.7z M173.4,158.6c-0.1,0-0.3,0-0.6,0.2c-0.8,0.4-1.5,0.9-2.2,1.3
			c-0.3,0.2-0.3,0.4-0.1,0.5c0.3,0.3,0.7,0.4,1,0.7c0.2,0.1,0.4,0.1,0.4,0.1l0,0c0,0,0.2,0,0.4-0.2c0.8-0.4,1.5-0.9,2.2-1.3
			c0.3-0.2,0.3-0.4,0.1-0.6c-0.3-0.2-0.6-0.4-0.9-0.6C173.6,158.7,173.5,158.6,173.4,158.6z M192.5,159.8c0.3,0.2,0.6,0.1,0.9-0.1
			c0.5-0.3,1-0.6,1.6-0.9c0.2-0.1,0.3-0.3,0.1-0.3c-0.1-0.1-0.3-0.2-0.3-0.3c-0.2-0.2-0.6-0.2-0.9,0c-0.6,0.3-1.1,0.6-1.6,0.9
			c-0.2,0.1-0.2,0.3-0.1,0.3C192.2,159.6,192.3,159.7,192.5,159.8z M177.9,158.9c-0.3,0.2-0.3,0.4-0.1,0.6c0.4,0.3,0.9,0.6,1.3,0.9
			c0.3,0.2,0.6,0.1,0.9-0.1c0.8-0.4,1.5-0.9,2.3-1.3c0.3-0.2,0.3-0.4,0.1-0.6c-0.4-0.3-0.9-0.6-1.3-0.9c-0.3-0.2-0.6-0.1-0.9,0.1
			C179.4,158.1,178.6,158.5,177.9,158.9z M161,161.7c0.3-0.2,0.3-0.4,0.1-0.5c-0.2-0.1-0.3-0.2-0.4-0.3c-0.3-0.2-0.6-0.1-0.9,0
			c-0.9,0.5-1.6,0.9-2.5,1.5c-0.3,0.2-0.3,0.4-0.1,0.5c0.2,0.1,0.3,0.2,0.4,0.3c0.3,0.2,0.6,0.1,0.9,0
			C159.4,162.7,160.1,162.2,161,161.7z M173.4,154.5c0.3-0.2,0.3-0.4,0.1-0.6c-0.2-0.1-0.3-0.2-0.4-0.3c-0.2-0.2-0.6-0.1-0.9,0
			c-0.9,0.5-1.7,1-2.6,1.5c-0.3,0.2-0.3,0.4-0.1,0.6c0.2,0.1,0.3,0.2,0.4,0.3c0.3,0.2,0.6,0.1,0.9,0
			C171.6,155.5,172.6,155.1,173.4,154.5z M181.6,149.7c0.3-0.2,0.3-0.4,0.1-0.6c-0.2-0.1-0.3-0.2-0.4-0.3c-0.3-0.2-0.6-0.2-0.9,0.1
			c-0.8,0.4-1.6,0.9-2.4,1.4c-0.3,0.2-0.3,0.4-0.1,0.6c0.2,0.1,0.3,0.3,0.4,0.3c0.2,0.2,0.6,0.1,0.9,0
			C180,150.7,180.8,150.2,181.6,149.7z M177.3,152.2c0.3-0.2,0.3-0.4,0.1-0.6c-0.2-0.1-0.3-0.2-0.4-0.3c-0.3-0.2-0.6-0.2-0.9,0
			c-0.7,0.4-1.4,0.8-2.1,1.2c-0.3,0.2-0.3,0.4-0.1,0.6c0.2,0.1,0.3,0.2,0.4,0.3c0.3,0.2,0.6,0.2,0.9,0
			C176,153.1,176.7,152.7,177.3,152.2z M169,157.1c0.3-0.2,0.3-0.4,0.1-0.6c-0.2-0.1-0.3-0.2-0.4-0.3c-0.3-0.2-0.6-0.1-0.9,0
			c-0.8,0.4-1.5,0.9-2.1,1.3c-0.3,0.2-0.3,0.4-0.1,0.6c0.2,0.1,0.3,0.3,0.4,0.3c0.3,0.2,0.6,0.1,0.9,0
			C167.4,158,168.2,157.5,169,157.1z M164.9,159.4c0.3-0.2,0.3-0.4,0.1-0.6c-0.2-0.1-0.3-0.2-0.4-0.3c-0.3-0.2-0.6-0.1-0.9,0
			c-0.7,0.4-1.4,0.8-2.1,1.2c-0.3,0.2-0.3,0.4-0.1,0.6c0.2,0.1,0.3,0.2,0.4,0.3c0.3,0.2,0.6,0.1,0.9,0
			C163.5,160.3,164.2,159.8,164.9,159.4z M183.9,161c0.3,0.2,0.4,0.1,0.4,0.1s0.2,0,0.5-0.2c2.4-1.4,4.8-2.7,7.2-4
			c0.3-0.2,0.3-0.4,0.2-0.6c-0.4-0.3-0.9-0.6-1.3-0.9c-0.3-0.2-0.6-0.1-0.9,0c-2.4,1.4-4.8,2.7-7.2,4c-0.3,0.2-0.3,0.4-0.1,0.6
			C183.1,160.4,183.5,160.6,183.9,161z M147.9,178.5c0.3-0.2,0.3-0.3,0.1-0.5c-0.4-0.3-0.9-0.5-1.3-0.9c-0.3-0.1-0.6-0.1-0.9,0
			c-1.7,0.9-3.4,2-5,2.9c-0.3,0.2-0.3,0.3-0.1,0.5c0.4,0.3,0.9,0.5,1.3,0.8c0.3,0.1,0.4,0.1,0.4,0.1s0.3,0,0.5-0.2
			C144.6,180.4,146.2,179.4,147.9,178.5z M178.4,154.3c0.3,0.2,0.6,0.2,0.9,0c1.6-0.9,3.3-1.9,4.9-2.8c0.3-0.2,0.3-0.4,0.2-0.6
			c-0.3-0.3-0.8-0.5-1.1-0.8c-0.3-0.2-0.6-0.1-0.9,0.1c-1.6,0.9-3.2,1.9-4.8,2.8c-0.3,0.2-0.3,0.4-0.1,0.6
			C177.7,153.8,178,154,178.4,154.3z M183.4,154.4c0.2,0.2,0.3,0.2,0.4,0.2s0.6-0.2,0.6-0.2c0.3-0.2,0.4-0.3,0.6-0.3
			c0.2-0.1,0.4,0.1,0.6,0.3c0.6,0.4,1.3,0.9,1.9,1.3c0.3,0.2,0.6,0.1,0.9,0c0.3-0.2,0.6-0.3,0.9-0.4c0.3-0.2,0.3-0.4,0.2-0.6
			c-1.3-0.9-2.5-1.7-3.8-2.6c-0.3-0.2-0.6-0.1-0.9,0.1c-0.8,0.4-1.5,0.9-2.1,1.3c-0.3,0.2-0.3,0.4-0.2,0.6
			C182.8,153.9,183.1,154.2,183.4,154.4z M141.4,173c0.3-0.2,0.3-0.4,0.1-0.5c-0.2-0.1-0.3-0.2-0.4-0.3c-0.2-0.1-0.6-0.1-0.9,0
			c-0.7,0.4-1.4,0.8-2,1.2c-0.3,0.2-0.3,0.4-0.1,0.5c0.2,0.1,0.3,0.2,0.4,0.3c0.3,0.1,0.6,0.1,0.9,0
			C140,173.9,140.7,173.5,141.4,173z M138.7,175.8c-0.3-0.1-0.6-0.1-0.9,0c-0.7,0.4-1.3,0.8-2,1.1c-0.3,0.2-0.3,0.3-0.1,0.5
			c0.3,0.3,0.8,0.4,1.1,0.7c0.3,0.1,0.6,0.1,0.9,0c0.7-0.3,1.3-0.8,2-1.1c0.3-0.2,0.3-0.4,0.1-0.5
			C139.4,176.4,139,176.1,138.7,175.8z M145.2,170.9c0.3-0.2,0.3-0.4,0.1-0.5c-0.2-0.1-0.3-0.2-0.4-0.3c-0.3-0.1-0.6-0.1-0.9,0
			c-0.7,0.4-1.4,0.8-2.1,1.2c-0.3,0.2-0.3,0.4-0.1,0.5c0.2,0.1,0.3,0.2,0.4,0.3c0.3,0.2,0.6,0.1,0.9,0
			C143.8,171.7,144.5,171.2,145.2,170.9z M155.4,168.7c-0.3,0.2-0.3,0.4-0.1,0.5c0.3,0.3,0.7,0.4,1,0.6c0.2,0.2,0.6,0.1,0.9,0
			c0.7-0.3,1.3-0.8,2-1.1c0.3-0.2,0.3-0.4,0.1-0.5c-0.3-0.3-0.7-0.4-1-0.7c-0.2-0.2-0.6-0.1-0.9,0
			C156.8,168,156.1,168.4,155.4,168.7z M143.5,176.1c-0.2-0.1-0.6-0.1-0.9,0c-1.5,0.9-2.8,1.6-4.3,2.5c-0.3,0.2-0.3,0.3-0.1,0.5
			c0.3,0.2,0.7,0.4,1,0.6c0.3,0.1,0.6,0.1,0.9,0c1.5-0.8,2.8-1.6,4.3-2.5c0.3-0.2,0.3-0.3,0.1-0.5
			C144.1,176.5,143.8,176.4,143.5,176.1z M156.7,164.2c0.3-0.2,0.3-0.4,0.1-0.5c-0.2-0.1-0.3-0.2-0.4-0.3c-0.3-0.2-0.6-0.1-0.9,0
			c-0.7,0.4-1.4,0.8-2.1,1.2c-0.3,0.2-0.3,0.4-0.1,0.5c0.2,0.1,0.3,0.2,0.4,0.3c0.3,0.2,0.6,0.1,0.9,0
			C155.4,165,156,164.6,156.7,164.2z M149,168.7c0.3-0.2,0.3-0.4,0.1-0.5s-0.3-0.2-0.4-0.3c-0.3-0.2-0.6-0.1-0.9,0
			c-0.7,0.4-1.4,0.8-2.1,1.2c-0.3,0.2-0.3,0.4-0.1,0.5c0.2,0.1,0.3,0.2,0.4,0.3c0.3,0.1,0.6,0.1,0.9,0
			C147.6,169.4,148.3,169.1,149,168.7z M152.9,166.4c0.3-0.2,0.3-0.4,0.1-0.5c-0.2-0.1-0.3-0.2-0.4-0.3c-0.3-0.2-0.6-0.1-0.9,0
			c-0.7,0.4-1.4,0.8-2.1,1.2c-0.3,0.2-0.3,0.4-0.1,0.5c0.2,0.1,0.3,0.2,0.4,0.3c0.3,0.2,0.6,0.1,0.9,0
			C151.4,167.2,152.1,166.9,152.9,166.4z M137.9,175c0,0,0-0.1-0.2-0.3c-0.2-0.1-0.3-0.2-0.4-0.3c-0.3-0.1-0.6-0.1-0.9,0
			c-0.9,0.5-1.6,0.9-2.5,1.5c-0.3,0.2-0.3,0.4-0.1,0.5c0.2,0.1,0.3,0.2,0.4,0.3c0.3,0.1,0.6,0.1,0.9,0c0.8-0.4,1.6-0.9,2.5-1.5
			C137.9,175.1,137.9,175,137.9,175z M151,177.6c0,0-0.3,0-0.4,0.2c-0.6,0.3-1.3,0.7-1.9,1.1c-0.3,0.2-0.3,0.3-0.1,0.5
			c0.4,0.3,0.9,0.5,1.3,0.9c0.3,0.1,0.6,0.1,0.9,0c0.6-0.3,1.3-0.7,1.9-1c0.3-0.2,0.3-0.4,0.1-0.5c-0.4-0.3-0.9-0.5-1.3-0.8
			C151.2,177.6,151,177.6,151,177.6z M151.5,176.4c0.3-0.2,0.3-0.4,0.1-0.5c-0.4-0.3-0.9-0.5-1.3-0.9c-0.3-0.1-0.6-0.1-0.9,0
			c-0.6,0.3-1.3,0.8-1.9,1.1c-0.3,0.2-0.3,0.3-0.1,0.5c0.4,0.3,0.9,0.5,1.3,0.8c0.3,0.1,0.6,0.1,0.9,0
			C150.3,177.1,150.9,176.8,151.5,176.4z M147.2,174.1c-0.3-0.1-0.4-0.2-0.4-0.2s-0.3,0-0.5,0.2c-0.6,0.3-1.3,0.8-2,1.1
			c-0.3,0.2-0.3,0.3-0.1,0.5c0.3,0.3,0.7,0.4,1,0.6c0.2,0.2,0.6,0.1,0.9,0c0.6-0.3,1.3-0.8,1.9-1.1c0.3-0.2,0.3-0.4,0.1-0.5
			C147.8,174.5,147.6,174.2,147.2,174.1z M152.3,176.8c-0.3,0.2-0.3,0.4-0.1,0.5c0.4,0.3,0.9,0.6,1.3,0.9c0.2,0.1,0.3,0.1,0.3,0.1
			s0.3,0,0.5-0.2c0.6-0.3,1.3-0.7,2-1.1c0.3-0.2,0.3-0.3,0.1-0.5c-0.4-0.3-0.9-0.6-1.3-0.9c-0.3-0.2-0.6-0.1-0.9,0
			C153.6,176,152.9,176.4,152.3,176.8z M141.8,173.6c0,0-0.2,0-0.4,0.2c-0.6,0.3-1.3,0.8-1.9,1.1c-0.3,0.2-0.3,0.4-0.1,0.5
			c0.3,0.3,0.7,0.4,1.1,0.7c0.3,0.1,0.6,0.1,0.9,0c0.6-0.3,1.3-0.8,1.9-1.1c0.3-0.2,0.3-0.4,0.1-0.5c-0.3-0.3-0.7-0.4-1-0.7
			C142.1,173.7,141.8,173.7,141.8,173.6z M150.6,170.8c0.3-0.2,0.3-0.4,0.1-0.5c-0.3-0.3-0.8-0.4-1.1-0.7c-0.3-0.1-0.6-0.1-0.9,0
			c-0.6,0.3-1.3,0.8-2,1.1c-0.3,0.2-0.3,0.4-0.1,0.5c0.3,0.3,0.7,0.4,1,0.7c0.3,0.2,0.6,0.1,0.9,0
			C149.3,171.6,150,171.1,150.6,170.8z M144.6,174.1c0,0,0.2,0,0.4-0.2c0.6-0.3,1.3-0.8,1.9-1.1c0.3-0.2,0.3-0.4,0.1-0.5
			c-0.3-0.3-0.8-0.4-1.1-0.7c-0.3-0.2-0.6-0.1-0.9,0c-0.6,0.3-1.3,0.8-1.9,1.1c-0.3,0.2-0.3,0.4-0.1,0.5c0.3,0.3,0.7,0.4,1.1,0.7
			C144.3,174.1,144.6,174.1,144.6,174.1z M156,174.7c-0.3,0.2-0.3,0.4-0.1,0.5c0.4,0.3,0.9,0.6,1.3,0.9c0.2,0.1,0.6,0.1,0.9,0
			c0.6-0.3,1.3-0.8,2-1.1c0.3-0.2,0.3-0.4,0.1-0.5c-0.4-0.3-0.9-0.6-1.3-0.9c-0.3-0.2-0.6-0.1-0.9,0
			C157.2,174,156.6,174.3,156,174.7z M175,164c-0.3,0.2-0.3,0.4-0.1,0.5c0.4,0.3,0.9,0.6,1.3,0.9c0.2,0.2,0.6,0.1,0.9,0
			c0.7-0.4,1.4-0.8,2.1-1.1c0.3-0.2,0.3-0.4,0.1-0.5c-0.4-0.3-0.9-0.6-1.3-0.9c-0.3-0.2-0.6-0.1-0.9,0
			C176.2,163.2,175.6,163.5,175,164z M178.8,161.7c-0.3,0.2-0.3,0.4-0.1,0.5c0.4,0.3,0.9,0.6,1.3,0.9c0.2,0.2,0.6,0.1,0.9,0
			c0.7-0.4,1.4-0.8,2.1-1.2c0.3-0.2,0.3-0.4,0.2-0.5c-0.4-0.3-0.9-0.6-1.3-0.9c-0.3-0.2-0.6-0.1-0.9,0
			C180.2,161,179.5,161.4,178.8,161.7z M188.2,159.9c-0.3,0.2-0.3,0.4-0.2,0.6c0.1,0.1,0.3,0.2,0.4,0.3s0.5,0.1,0.8,0
			c0.6-0.3,1.1-0.6,1.7-0.9c0.3-0.2,0.3-0.4,0.2-0.6c-0.2-0.1-0.3-0.3-0.5-0.3c-0.1-0.1-0.3-0.1-0.4,0
			C189.5,159.2,188.8,159.6,188.2,159.9z M151.9,169.9c0,0,0.2,0,0.4-0.2c0.6-0.3,1.3-0.8,2-1.1c0.3-0.2,0.3-0.4,0.1-0.5
			c-0.3-0.3-0.8-0.4-1.1-0.7c-0.3-0.2-0.6-0.1-0.9,0c-0.7,0.4-1.3,0.8-2,1.1c-0.3,0.2-0.3,0.4-0.1,0.5c0.3,0.3,0.8,0.4,1.1,0.7
			C151.7,169.9,151.9,169.9,151.9,169.9z M159.7,172.6c-0.3,0.2-0.3,0.4-0.1,0.5c0.4,0.3,0.9,0.6,1.3,0.9c0.3,0.2,0.6,0.1,0.9,0
			c0.7-0.3,1.3-0.8,2-1.1c0.3-0.2,0.3-0.4,0.1-0.5c-0.4-0.3-0.9-0.6-1.3-0.9c-0.3-0.2-0.6-0.1-0.9,0
			C161,171.8,160.3,172.3,159.7,172.6z M163.4,170.5c-0.3,0.2-0.3,0.4-0.1,0.5c0.4,0.3,0.9,0.6,1.3,0.9c0.3,0.1,0.6,0.1,0.9,0
			c0.7-0.3,1.3-0.8,2-1.1c0.3-0.2,0.3-0.4,0.1-0.5c-0.4-0.3-0.9-0.6-1.3-0.9c-0.2-0.2-0.6-0.1-0.9,0
			C164.7,169.7,164.1,170.1,163.4,170.5z M169.6,167.1c0,0-0.2,0-0.4,0.2c-0.6,0.3-1.3,0.7-1.9,1c-0.3,0.2-0.3,0.4-0.1,0.5
			c0.4,0.3,0.9,0.5,1.3,0.8c0.3,0.2,0.4,0.1,0.4,0.1s0.3,0,0.5-0.1c0.6-0.3,1.3-0.7,1.9-1c0.3-0.2,0.3-0.4,0.1-0.5
			c-0.4-0.3-0.9-0.6-1.3-0.9C169.7,167.1,169.6,167.1,169.6,167.1z M173.6,164.9c0,0-0.2,0-0.4,0.2c-0.8,0.4-1.5,0.9-2.1,1.3
			c-0.3,0.2-0.3,0.4-0.1,0.5c0.4,0.3,0.9,0.6,1.3,0.9c0.2,0.2,0.6,0.1,0.9,0c0.7-0.4,1.5-0.8,2.1-1.2c0.3-0.2,0.3-0.4,0.1-0.5
			c-0.4-0.3-0.9-0.6-1.3-0.9C173.8,164.9,173.6,164.9,173.6,164.9z M154.2,169.6c0,0-0.3,0-0.5,0.2c-0.7,0.3-1.3,0.8-2,1.1
			c-0.3,0.2-0.3,0.4-0.1,0.5c0.3,0.3,0.7,0.4,0.9,0.6s0.3,0.1,0.4,0.1c0.1,0,0.3,0,0.5-0.2c0.6-0.3,1.3-0.8,2-1.1
			c0.3-0.2,0.3-0.4,0.1-0.5c-0.3-0.2-0.7-0.4-0.9-0.6C154.4,169.7,154.2,169.6,154.2,169.6z M164,169.3c0.2,0,0.3,0,0.5-0.2
			c0.7-0.3,1.4-0.8,2-1.1c0.3-0.2,0.3-0.4,0.1-0.5c-0.4-0.3-0.9-0.6-1.3-0.9c-0.3-0.2-0.6-0.1-0.9,0c-0.7,0.4-1.3,0.8-2,1.1
			c-0.3,0.2-0.3,0.4-0.1,0.5c0.4,0.3,0.9,0.5,1.2,0.8C163.7,169.2,163.8,169.3,164,169.3z M170.2,165.9c0.3-0.2,0.3-0.4,0.1-0.5
			c-0.4-0.3-0.9-0.6-1.3-0.9c-0.3-0.2-0.6-0.1-0.9,0c-0.6,0.3-1.3,0.7-1.9,1.1c-0.3,0.2-0.3,0.4-0.1,0.5c0.4,0.3,0.9,0.6,1.3,0.9
			c0.3,0.2,0.6,0.1,0.9-0.1C168.9,166.6,169.6,166.3,170.2,165.9z M178,161.4c0.3-0.2,0.3-0.4,0.1-0.6c-0.4-0.3-0.9-0.6-1.3-0.9
			c-0.3-0.2-0.6-0.1-0.9,0c-0.7,0.4-1.4,0.8-2.1,1.2c-0.3,0.2-0.3,0.4-0.1,0.5c0.4,0.3,0.9,0.6,1.3,0.9c0.3,0.2,0.6,0.1,0.9,0
			C176.7,162.2,177.3,161.8,178,161.4z M162.7,170.1c0.3-0.2,0.3-0.4,0.1-0.5c-0.4-0.3-0.9-0.6-1.3-0.9c-0.3-0.1-0.6-0.1-0.9,0
			c-0.7,0.3-1.3,0.8-2,1.1c-0.3,0.2-0.3,0.4-0.1,0.5c0.4,0.3,0.9,0.6,1.3,0.9c0.2,0.2,0.6,0.1,0.9,0
			C161.3,170.9,162,170.5,162.7,170.1z M174.2,163.6c0.3-0.2,0.3-0.4,0.1-0.5c-0.4-0.3-0.9-0.6-1.3-0.9c-0.3-0.2-0.6-0.1-0.9,0
			c-0.8,0.4-1.5,0.9-2.2,1.3c-0.3,0.2-0.3,0.4-0.1,0.5c0.4,0.3,0.8,0.5,1.2,0.8c0.3,0.2,0.6,0.2,0.9,0
			C172.6,164.4,173.4,164,174.2,163.6z M158.9,172.3c0.3-0.2,0.3-0.4,0.1-0.5c-0.4-0.3-0.8-0.5-1.2-0.8c-0.3-0.2-0.3-0.3-0.4-0.3
			s-0.3,0-0.5,0.1c-0.7,0.4-1.4,0.8-2,1.1c-0.3,0.2-0.3,0.4-0.1,0.5c0.4,0.3,0.9,0.6,1.3,0.9c0.3,0.2,0.6,0.1,0.9,0
			C157.7,172.9,158.3,172.6,158.9,172.3z M148,173c-0.3,0.2-0.3,0.4-0.1,0.5c0.3,0.3,0.7,0.4,1,0.6c0.3,0.1,0.6,0.1,0.9,0
			c0.6-0.3,1.3-0.8,2-1.1c0.3-0.2,0.3-0.4,0.1-0.5c-0.3-0.3-0.7-0.4-1-0.6c-0.3-0.2-0.6-0.1-0.9,0C149.3,172.3,148.7,172.7,148,173z
			 M152.7,175.6c0,0,0.3,0,0.5-0.1c0.7-0.3,1.3-0.8,2-1.1c0.3-0.2,0.3-0.4,0.1-0.5c-0.4-0.3-0.9-0.6-1.3-0.9c-0.3-0.2-0.6-0.1-0.9,0
			c-0.6,0.3-1.3,0.8-2,1.1c-0.3,0.2-0.3,0.4-0.1,0.5c0.4,0.3,0.8,0.5,1.2,0.8C152.5,175.5,152.7,175.6,152.7,175.6z M174.9,156.9
			c0,0,0.3-0.1,0.5-0.3c0.7-0.4,1.4-0.8,2.1-1.2c0.3-0.2,0.3-0.4,0.1-0.6c-0.3-0.3-0.8-0.5-1.1-0.8c-0.2-0.2-0.6-0.1-0.9,0
			c-0.7,0.4-1.4,0.8-2.1,1.2c-0.3,0.2-0.3,0.4-0.1,0.6c0.3,0.3,0.8,0.5,1.1,0.8C174.7,156.7,174.9,156.9,174.9,156.9z M161.9,164.3
			c0.3-0.2,0.3-0.4,0.1-0.5c-0.3-0.3-0.8-0.4-1.1-0.7c-0.3-0.2-0.6-0.1-0.9,0c-0.7,0.4-1.4,0.8-2,1.1c-0.3,0.2-0.3,0.4-0.1,0.5
			c0.3,0.3,0.8,0.4,1.1,0.7c0.3,0.2,0.6,0.1,0.9,0C160.6,165.1,161.3,164.6,161.9,164.3z M183.3,158c0.2,0.2,0.6,0.1,0.9,0
			c0.8-0.4,1.6-0.9,2.4-1.4c0.3-0.2,0.3-0.4,0.1-0.6c-0.4-0.3-0.9-0.6-1.3-0.9c-0.3-0.2-0.6-0.1-0.9,0c-0.8,0.4-1.6,0.9-2.4,1.4
			c-0.3,0.2-0.3,0.4-0.2,0.6C182.3,157.4,182.8,157.7,183.3,158z M169.6,159.8c0.3-0.2,0.3-0.4,0.1-0.6c-0.3-0.3-0.7-0.4-1-0.7
			c-0.3-0.2-0.4-0.2-0.4-0.2s-0.3,0-0.5,0.2c-0.8,0.4-1.5,0.9-2.2,1.3c-0.3,0.2-0.3,0.4-0.1,0.5c0.3,0.3,0.8,0.5,1.1,0.8
			c0.2,0.2,0.6,0.1,0.9,0C168.1,160.7,168.9,160.3,169.6,159.8z M165.5,162.2c0.3-0.2,0.3-0.4,0.1-0.5c-0.3-0.3-0.7-0.4-1-0.7
			c-0.3-0.2-0.4-0.2-0.4-0.2s-0.3,0-0.5,0.2c-0.6,0.3-1.3,0.8-1.9,1.1c-0.3,0.2-0.3,0.4-0.1,0.5c0.3,0.3,0.8,0.5,1.1,0.7
			c0.3,0.2,0.6,0.1,0.9,0C164.3,162.8,164.9,162.5,165.5,162.2z M155.6,167.8c0,0,0.2,0,0.4-0.2c0.7-0.3,1.3-0.8,2-1.1
			c0.3-0.2,0.3-0.4,0.1-0.5c-0.3-0.3-0.8-0.4-1.1-0.7c-0.3-0.2-0.6-0.1-0.9,0c-0.7,0.4-1.3,0.8-2,1.1c-0.3,0.2-0.3,0.4-0.1,0.5
			c0.3,0.3,0.7,0.4,1.1,0.7C155.4,167.8,155.6,167.8,155.6,167.8z M173.5,157.6c0.3-0.2,0.3-0.4,0.1-0.6c-0.3-0.3-0.8-0.5-1.1-0.8
			c-0.3-0.2-0.6-0.1-0.9,0c-0.7,0.4-1.4,0.8-2.1,1.2c-0.3,0.2-0.3,0.4-0.1,0.6c0.3,0.3,0.8,0.5,1.1,0.8c0.3,0.2,0.6,0.1,0.9-0.1
			C172.1,158.4,172.8,158,173.5,157.6z M182.5,155.5c0.3-0.2,0.3-0.4,0.1-0.6c-0.3-0.3-0.7-0.4-1-0.7c-0.3-0.2-0.6-0.1-0.9,0
			c-0.7,0.4-1.4,0.8-2.1,1.2c-0.3,0.2-0.3,0.4-0.1,0.6c0.3,0.3,0.7,0.4,1,0.7c0.3,0.2,0.6,0.1,0.9,0
			C181.1,156.3,181.8,155.9,182.5,155.5z M148.3,186.2c-0.1,0-0.1,0-0.2,0C148.2,186.2,148.3,186.2,148.3,186.2
			c0.3,0,0.4-0.1,0.7-0.2c3.8-2.1,7.6-4.2,11.6-6.4c3.9-2.1,7.8-4.4,11.8-6.6c4-2.2,8.1-4.5,12.2-6.8c4.2-2.3,8.3-4.6,12.6-7
			c-4.3,2.3-8.5,4.7-12.6,7c-4.1,2.3-8.2,4.5-12.2,6.8c-4,2.2-8,4.4-11.8,6.6c-3.9,2.1-7.7,4.3-11.6,6.4
			C148.8,186.1,148.5,186.2,148.3,186.2z"/>
		<path id="XMLID_117_" class="st8" d="M132.4,177.4c0.3,1.5-0.8,2.7-2.2,2.7c-1.5,0-2.8-1.2-3-2.7c-0.3-1.5,0.8-2.7,2.2-2.7
			C130.8,174.7,132.2,175.9,132.4,177.4"/>
		<path id="XMLID_116_" class="st10" d="M131.1,177.7c0.2,1-0.5,1.9-1.5,1.9s-1.9-0.9-2.1-1.8c-0.2-1,0.5-1.9,1.5-1.9
			C130,175.8,131,176.7,131.1,177.7"/>
		<path id="XMLID_115_" class="st11" d="M127.5,177.4c0-0.9,0.6-1.5,1.5-1.5C128.1,175.8,127.5,176.5,127.5,177.4"/>
		<path id="XMLID_114_" class="st12" d="M128.8,179.4c-0.6-0.3-1.1-0.9-1.2-1.6c0-0.1,0-0.2,0-0.3c0-0.9,0.6-1.5,1.5-1.5l0,0l0,0
			c0.3,0,0.5,0.1,0.8,0.2C129.5,177,129.1,178.2,128.8,179.4"/>
		<path id="XMLID_113_" class="st5" d="M182.1,119.3c0.9,0.5,10.9,5,11.6,5.2c0.8,0.2,2,0.2,4-0.9c2.1-1.1,1.5-2.1,1.5-2.1l-5.6-2.4
			l-9.4-1.5c0,0-1.5,0.4-2.1,0.9C181.8,118.7,181.8,119.1,182.1,119.3"/>
		<path id="XMLID_112_" class="st5" d="M198.9,122.2c0.4-0.4,0.4-1.1-0.1-1.5c-5.4-4.4-10.9-4.6-11.1-4.6c0,0-1.5-0.1-3.7,0.9
			c-1.2,0.6-1.8,1.1-2.2,1.5c-0.2,0.2-0.1,0.4,0.2,0.5c1.7,0.3,6.2,0.9,10.9,4.8c0.3,0.3,0.8,0.4,1.1,0.3c0.7-0.1,1.7-0.3,3.1-0.8
			C198.1,123,198.6,122.5,198.9,122.2"/>
		<path id="XMLID_111_" class="st5" d="M181.9,118.9c-0.1-0.1,0-0.3,0.1-0.3C181.9,118.6,181.8,118.8,181.9,118.9L181.9,118.9z"/>
		<path id="XMLID_110_" class="st5" d="M182.5,119.1c-0.2,0-0.3-0.1-0.4-0.1c-0.1,0-0.2-0.1-0.3-0.2l0,0c0,0.1,0.1,0.2,0.3,0.2
			C182.2,119,182.3,119,182.5,119.1"/>
		<path id="XMLID_109_" class="st5" d="M184.2,117.1c1.8-0.9,3.2-0.9,3.5-0.9c0.1,0,0.1,0,0.1,0s0.1,0,0.2,0c-0.1,0-0.2,0-0.2,0
			s0,0-0.1,0C187.3,116.1,185.9,116.1,184.2,117.1"/>
		<path class="st5" d="M198.7,120.6L198.7,120.6L198.7,120.6 M198.8,120.6L198.8,120.6L198.8,120.6z M198.8,120.7L198.8,120.7
			L198.8,120.7z M198.8,120.7L198.8,120.7L198.8,120.7z M198.8,120.7L198.8,120.7L198.8,120.7L198.8,120.7z M198.8,120.7
			L198.8,120.7L198.8,120.7z M198.9,120.7L198.9,120.7L198.9,120.7L198.9,120.7z M198.9,120.7L198.9,120.7L198.9,120.7L198.9,120.7z
			"/>
		<path id="XMLID_100_" class="st5" d="M186.1,117.8c0.2,0,0.3,0,0.4-0.1l0.5-0.3c0.2-0.1,0.2-0.3-0.1-0.4l-0.7-0.2
			c-0.1,0-0.1,0-0.1,0c-0.1,0-0.2,0-0.3,0.1l-0.6,0.3c-0.2,0.1-0.2,0.3,0.1,0.4l0.5,0.2C185.9,117.8,186,117.8,186.1,117.8"/>
		<path id="XMLID_99_" class="st8" d="M183.7,120c0.9,0.5,10.9,5,11.6,5.2c0.8,0.2,2,0.2,4-0.9c2.1-1.1,1.5-2.1,1.5-2.1l-5.6-2.4
			l-9.4-1.5c0,0-1.5,0.4-2.1,0.9C183.4,119.5,183.4,119.8,183.7,120"/>
		<path id="XMLID_98_" class="st7" d="M200.5,123c0.4-0.4,0.4-1.1-0.1-1.5c-5.4-4.4-10.9-4.6-11.1-4.6c0,0-1.5-0.1-3.7,0.9
			c-1.2,0.6-1.8,1.1-2.2,1.5c-0.2,0.2-0.1,0.4,0.2,0.5c1.7,0.3,6.2,0.9,10.9,4.8c0.3,0.3,0.8,0.4,1.1,0.3c0.7-0.1,1.7-0.3,3.1-0.8
			C199.6,123.7,200.2,123.3,200.5,123"/>
		<path id="XMLID_97_" class="st13" d="M183.5,119.6c-0.1-0.1,0-0.3,0.1-0.3C183.4,119.4,183.4,119.5,183.5,119.6L183.5,119.6z"/>
		<path id="XMLID_96_" class="st8" d="M184.1,119.8c-0.2,0-0.3-0.1-0.4-0.1c-0.1,0-0.2-0.1-0.3-0.2l0,0c0,0.1,0.1,0.2,0.3,0.2
			S183.9,119.8,184.1,119.8"/>
		<path id="XMLID_95_" class="st13" d="M185.7,117.8c1.8-0.9,3.2-0.9,3.5-0.9c0.1,0,0.1,0,0.1,0s0.1,0,0.2,0c-0.1,0-0.2,0-0.2,0
			s0,0-0.1,0C188.9,116.8,187.5,116.9,185.7,117.8"/>
		<path class="st14" d="M200.4,121.3L200.4,121.3L200.4,121.3 M200.4,121.3L200.4,121.3L200.4,121.3z M200.4,121.3L200.4,121.3
			L200.4,121.3z M200.5,121.3L200.5,121.3L200.5,121.3z M200.5,121.4C200.5,121.4,200.5,121.3,200.5,121.4
			C200.5,121.3,200.5,121.4,200.5,121.4L200.5,121.4z M200.5,121.4L200.5,121.4L200.5,121.4z M200.5,121.4L200.5,121.4L200.5,121.4
			L200.5,121.4z M200.5,121.4L200.5,121.4L200.5,121.4L200.5,121.4z"/>
		<path id="XMLID_86_" class="st15" d="M187.7,118.6c0.2,0,0.3,0,0.4-0.1l0.5-0.3c0.2-0.1,0.2-0.3-0.1-0.4l-0.7-0.2
			c-0.1,0-0.1,0-0.1,0c-0.1,0-0.2,0-0.3,0.1l-0.6,0.3c-0.2,0.1-0.2,0.3,0.1,0.4l0.5,0.2C187.5,118.6,187.6,118.6,187.7,118.6"/>
		<polygon id="XMLID_85_" class="st5" points="187.6,136.3 193.9,132.7 223.4,149.6 217.1,153.2 210.9,156.9 181.4,139.9 		"/>
		<path id="XMLID_84_" class="st16" d="M185.2,138.2L185.2,138.2c0,0.1,0.1,0.1,0.1,0.2l0,0c0,0.1,0.1,0.1,0.1,0.2l0.1,0.1l0.1,0.1
			l26.3,14.5c0.1,0.1,0.2,0.1,0.3,0.1h0.1c0.1,0,0.1,0,0.2,0.1c0.1,0,0.1,0,0.2,0.1c0.1,0,0.2,0,0.2,0h0.1c0.1,0,0.2,0,0.3,0h0.1
			c0.1,0,0.2,0,0.3,0h0.1c0.1,0,0.2,0,0.3-0.1h0.1c0.1,0,0.2-0.1,0.3-0.1h0.1c0.1,0,0.2-0.1,0.3-0.1l42.9-24
			c0.3-0.2,0.5-0.4,0.5-0.7v0.9c0,0.3-0.2,0.5-0.5,0.7l-43,24.7c-0.1,0.1-0.2,0.1-0.3,0.1l0,0H214c-0.1,0-0.1,0-0.2,0.1h-0.1h-0.1
			h-0.1c-0.1,0-0.1,0-0.2,0h-0.1h-0.1h-0.1c-0.1,0-0.1,0-0.2,0l0,0h0.2H213c-0.1,0-0.1,0-0.2,0l0,0h-0.1c-0.1,0-0.1,0-0.2,0h-0.1
			c-0.1,0-0.1,0-0.2-0.1h-0.1h-0.1h-0.1c-0.1,0-0.2-0.1-0.3-0.1l-26.3-15.2l0,0l-0.1-0.1l-0.1-0.1l0,0l-0.1-0.1l0,0l0,0v-0.1
			l-0.1-0.1l0,0l0,0v-0.1v-0.1l0,0L185.2,138.2C185.2,138.1,185.2,138.2,185.2,138.2"/>
		<path id="XMLID_83_" class="st17" d="M185.7,137.4c-0.7,0.4-0.7,1,0,1.4l26.2,15.2c0.7,0.4,1.7,0.4,2.4,0l42.9-24.7
			c0.7-0.4,0.7-1,0-1.4L231,112.7c-0.7-0.4-1.7-0.4-2.4,0L185.7,137.4z"/>
		<path id="XMLID_82_" class="st18" d="M185.7,137.4c-0.7,0.4-0.7,1,0,1.4l26.2,15.2c0.7,0.4,1.7,0.4,2.4,0l42.9-24.7
			c0.7-0.4,0.7-1,0-1.4L231,112.7c-0.7-0.4-1.7-0.4-2.4,0L185.7,137.4z"/>
		<path id="XMLID_81_" class="st19" d="M210.3,153.1l1.6,0.9c0.7,0.4,1.7,0.4,2.4,0l42.9-24.7c0.7-0.4,0.7-1,0-1.4l-1.5-0.9
			L210.3,153.1z"/>
		<path id="XMLID_80_" class="st19" d="M185.7,137.4c-0.7,0.4-0.7,1,0,1.4l2.6,1.5l45.5-26l-2.7-1.6c-0.7-0.4-1.7-0.4-2.4,0
			L185.7,137.4z"/>
		<path id="XMLID_79_" class="st20" d="M196.5,133.5c-0.6,0.3-0.6,0.9,0,1.2l22.9,13.3c0.6,0.3,1.5,0.3,2.1,0l32.3-18.7
			c0.6-0.3,0.6-0.9,0-1.2l-22.9-13.4c-0.6-0.3-1.5-0.3-2.1,0L196.5,133.5z"/>
		<path id="XMLID_78_" class="st16" d="M198.1,143.7L198.1,143.7v0.2c0,0.1,0.1,0.1,0.1,0.2l0,0c0,0.1,0.1,0.1,0.1,0.2l0,0
			c0.1,0.1,0.1,0.1,0.1,0.2l0,0c0.1,0.1,0.1,0.1,0.2,0.2l0.1,0.1l0.1,0.1c0.1,0,0.1,0.1,0.2,0.1c0.1,0,0.1,0.1,0.2,0.1
			c0.1,0.1,0.2,0.1,0.3,0.2h0.1c0.1,0.1,0.2,0.1,0.3,0.1l0,0c0.1,0,0.2,0.1,0.3,0.1s0.2,0.1,0.2,0.1c0.1,0,0.1,0,0.2,0.1
			c0.1,0,0.2,0,0.3,0.1c0.1,0,0.1,0,0.2,0h0.1c0.1,0,0.2,0,0.3,0.1h0.1c0.1,0,0.1,0,0.2,0c0.1,0,0.2,0,0.3,0c0.1,0,0.1,0,0.2,0
			c0.1,0,0.2,0,0.3,0c0.1,0,0.1,0,0.2,0c0.1,0,0.2,0,0.2,0c0.1,0,0.1,0,0.2,0c0.1,0,0.1,0,0.2,0c0.1,0,0.1,0,0.2,0s0.2,0,0.3-0.1
			c0.1,0,0.1,0,0.2,0s0.2-0.1,0.3-0.1s0.1,0,0.2-0.1h0.1c0.1,0,0.2-0.1,0.3-0.1h0.1c0.1,0,0.2-0.1,0.3-0.1l0.1-0.1
			c0.1-0.1,0.2-0.1,0.3-0.2c0.8-0.4,1.2-1,1.2-1.6v0.6c0,0.6-0.4,1.2-1.2,1.6c-0.1,0.1-0.2,0.1-0.3,0.2l-0.1,0.1
			c-0.1,0-0.1,0.1-0.2,0.1l0,0H204c-0.1,0-0.2,0.1-0.3,0.1h-0.1h-0.1h-0.1c-0.1,0-0.2,0.1-0.3,0.1h-0.1h-0.1c-0.1,0-0.2,0-0.3,0.1
			h-0.1h-0.1c-0.1,0-0.1,0-0.2,0h-0.1h-0.1c-0.1,0-0.1,0-0.2,0h-0.1H202c-0.1,0-0.2,0-0.3,0h-0.1h-0.1c-0.1,0-0.2,0-0.3,0h-0.1h-0.1
			h-0.1c-0.1,0-0.2,0-0.3-0.1h-0.1l0,0h-0.1c-0.1,0-0.2,0-0.3-0.1c-0.1,0-0.1,0-0.2-0.1c-0.1,0-0.2-0.1-0.2-0.1h-0.1
			c-0.1,0-0.2-0.1-0.3-0.1l0,0c-0.1,0-0.2-0.1-0.3-0.1h-0.1c-0.1-0.1-0.2-0.1-0.3-0.2H199l-0.1-0.1c-0.1,0-0.1-0.1-0.2-0.1l-0.1-0.1
			l-0.1-0.1l0,0c-0.1-0.1-0.1-0.1-0.2-0.2l0,0l-0.1-0.1l-0.1-0.1l0,0c0-0.1-0.1-0.1-0.1-0.2v-0.1l0,0c0-0.1-0.1-0.1-0.1-0.2l0,0
			v-0.1v-0.1l0,0l0,0c0-0.1,0-0.1,0-0.2l0,0v-0.6c0,0.1,0,0.2,0,0.2L198.1,143.7z"/>
		<path id="XMLID_77_" class="st19" d="M199.3,141.8c-1.5,0.9-1.5,2.4,0,3.3c1.5,0.9,4.1,0.9,5.6,0s1.5-2.4,0-3.3
			C203.4,140.9,200.8,140.9,199.3,141.8"/>
		<path id="XMLID_76_" class="st18" d="M199.8,145.3c1.5,0.6,3.7,0.6,5.1-0.3c1.5-0.8,1.5-2.1,0.4-3c-1.5-0.6-3.8-0.6-5.1,0.3
			C198.7,143.2,198.7,144.4,199.8,145.3"/>
		<path id="XMLID_75_" class="st21" d="M249.6,127.5l0.1-0.2l1.5,0.9c0.2,0.1,0.2,0.3,0,0.4l-1.5,0.9l-0.1-0.2l1.3-0.8
			c0.2-0.1,0.2-0.3,0-0.4L249.6,127.5z"/>
		<path id="XMLID_74_" class="st21" d="M220.3,146c0.2,0.1,0.3,0.1,0.5,0l0.9-0.5l0.1,0.2l-0.9,0.5c-0.2,0.1-0.3,0.1-0.5,0l-0.9-0.5
			l0.1-0.2L220.3,146z"/>
		<path id="XMLID_73_" class="st21" d="M199.9,133.3l0.1,0.2l-0.9,0.6c-0.1,0.1-0.1,0.2,0,0.2l0.6,0.3l-0.1,0.2l-0.9-0.5
			c-0.1-0.1-0.1-0.2,0-0.2L199.9,133.3z"/>
		<path id="XMLID_72_" class="st21" d="M230.7,117.1l-0.1,0.2l-0.9-0.6c-0.2-0.1-0.3-0.1-0.5,0l-0.9,0.6l-0.1-0.2l1-0.6
			c0.2-0.1,0.3-0.1,0.5,0L230.7,117.1z"/>
		<path class="st16" d="M197.1,139.5c0.3,0.1,0.3,0.4,0,0.5l-1.5,0.9l0,0c-0.1,0-0.2,0-0.3,0l0,0l-0.8-0.4c-0.3-0.1-0.3-0.4,0-0.5
			l1.5-0.9l0,0c0.1,0,0.2,0,0.3,0l0,0L197.1,139.5z M195.8,138.7c0.3,0.1,0.3,0.4,0,0.5l-1.5,0.9l0,0c-0.1,0-0.2,0-0.3,0l0,0
			l-0.8-0.4c-0.3-0.1-0.3-0.4,0-0.5l1.5-0.9l0,0c0.1,0,0.2,0,0.3,0l0,0L195.8,138.7z M194.5,137.9c0.3,0.1,0.3,0.4,0,0.5l-1.5,0.9
			l0,0c-0.1,0-0.2,0-0.3,0l0,0l-0.8-0.4c-0.3-0.1-0.3-0.4,0-0.5l1.5-0.9l0,0c0.1,0,0.2,0,0.3,0l0,0L194.5,137.9z M193.1,137.2
			c0.3,0.1,0.3,0.4,0,0.5l-1.5,0.9l0,0c-0.1,0-0.2,0-0.3,0l0,0l-0.8-0.4c-0.3-0.1-0.3-0.4,0-0.5l1.5-0.9l0,0c0.1,0,0.2,0,0.3,0l0,0
			L193.1,137.2z"/>
		<path id="XMLID_67_" class="st19" d="M192.2,136.8l-1.5,0.9c-0.2,0.1-0.2,0.3,0,0.3l0.8,0.4c0.1,0,0.1,0,0.2,0l1.5-0.9
			c0.2-0.1,0.2-0.3,0-0.3l-0.8-0.4C192.2,136.8,192.2,136.8,192.2,136.8"/>
		<path id="XMLID_66_" class="st19" d="M193.4,137.6l-1.5,0.9c-0.2,0.1-0.2,0.3,0,0.3l0.8,0.4c0.1,0,0.1,0,0.2,0l1.5-0.9
			c0.2-0.1,0.2-0.3,0-0.3l-0.8-0.4C193.6,137.6,193.5,137.6,193.4,137.6"/>
		<path id="XMLID_65_" class="st19" d="M194.8,138.4l-1.5,0.9c-0.2,0.1-0.2,0.3,0,0.3l0.8,0.4c0.1,0,0.1,0,0.2,0l1.5-0.9
			c0.2-0.1,0.2-0.3,0-0.3l-0.8-0.4C195,138.4,194.9,138.4,194.8,138.4"/>
		<path id="XMLID_64_" class="st19" d="M196.2,139.1l-1.5,0.9c-0.2,0.1-0.2,0.3,0,0.3l0.8,0.4c0.1,0,0.1,0,0.2,0l1.5-0.9
			c0.2-0.1,0.2-0.3,0-0.3l-0.8-0.4C196.3,139.1,196.2,139.1,196.2,139.1"/>
		<path id="XMLID_63_" class="st22" d="M200.6,142.6c-0.8,0.4-0.8,1.2,0,1.7c0.8,0.4,2.1,0.4,2.9,0s0.8-1.2,0-1.7
			C202.7,142.1,201.4,142.1,200.6,142.6"/>
		<path class="st16" d="M214.1,149.4c0.3,0.1,0.3,0.4,0,0.5l-1.5,0.9l0,0c-0.1,0-0.2,0-0.3,0l0,0l-0.8-0.4c-0.3-0.1-0.3-0.4,0-0.5
			l1.5-0.9l0,0c0.1,0,0.2,0,0.3,0l0,0L214.1,149.4z M212.8,148.6c0.3,0.1,0.3,0.4,0,0.5l-1.5,0.9l0,0c-0.1,0-0.2,0-0.3,0l0,0
			l-0.8-0.4c-0.3-0.1-0.3-0.4,0-0.5l1.5-0.9l0,0c0.1,0,0.2,0,0.3,0l0,0L212.8,148.6z M211.4,147.9c0.3,0.1,0.3,0.4,0,0.5l-1.5,0.9
			l0,0c-0.1,0-0.2,0-0.3,0l0,0l-0.8-0.4c-0.3-0.1-0.3-0.4,0-0.5l1.5-0.9l0,0c0.1,0,0.2,0,0.3,0l0,0L211.4,147.9z M210.1,147.1
			c0.3,0.1,0.3,0.4,0,0.5l-1.5,0.9l0,0c-0.1,0-0.2,0-0.3,0l0,0l-0.8-0.4c-0.3-0.1-0.3-0.4,0-0.5l1.5-0.9l0,0c0.1,0,0.2,0,0.3,0l0,0
			L210.1,147.1z"/>
		<path id="XMLID_58_" class="st19" d="M209.1,146.8l-1.5,0.9c-0.2,0.1-0.2,0.3,0,0.3l0.8,0.4c0.1,0,0.1,0,0.2,0l1.5-0.9
			c0.2-0.1,0.2-0.3,0-0.3l-0.8-0.4C209.3,146.8,209.2,146.8,209.1,146.8"/>
		<path id="XMLID_57_" class="st19" d="M210.5,147.5l-1.5,0.9c-0.2,0.1-0.2,0.3,0,0.3l0.8,0.4c0.1,0,0.1,0,0.2,0l1.5-0.9
			c0.2-0.1,0.2-0.3,0-0.3l-0.8-0.4C210.5,147.5,210.5,147.5,210.5,147.5"/>
		<path id="XMLID_56_" class="st19" d="M211.8,148.3l-1.5,0.9c-0.2,0.1-0.2,0.3,0,0.3l0.8,0.4c0.1,0,0.1,0,0.2,0l1.5-0.9
			c0.2-0.1,0.2-0.3,0-0.3l-0.8-0.4C211.9,148.3,211.8,148.3,211.8,148.3"/>
		<path id="XMLID_55_" class="st19" d="M213.1,149.1l-1.5,0.9c-0.2,0.1-0.2,0.3,0,0.3l0.8,0.4c0.1,0,0.1,0,0.2,0l1.5-0.9
			c0.2-0.1,0.2-0.3,0-0.3l-0.8-0.4C213.3,149.1,213.2,149.1,213.1,149.1"/>
		<path id="XMLID_54_" class="st23" d="M200.7,142.6c-0.8,0.4-0.8,1.1,0,1.5c0.8,0.4,2,0.4,2.7,0c0.8-0.4,0.8-1.1,0-1.5
			C202.7,142.2,201.5,142.2,200.7,142.6"/>
		<polygon id="XMLID_53_" class="st5" points="186.9,82.6 189.8,81 226.6,102.2 223.7,103.8 221,105.4 184.1,84.2 		"/>
		<polygon id="XMLID_52_" class="st18" points="245.9,90.1 211.1,69.8 187.3,83.6 222.1,103.8 		"/>
		<polygon id="XMLID_51_" class="st18" points="244.3,86.3 245.1,85.9 245.1,90.5 244.3,90.1 		"/>
		<polygon id="XMLID_50_" class="st18" points="245.9,85.5 211.1,65.2 187.3,79 222.1,99.2 		"/>
		<polygon id="XMLID_49_" class="st16" points="245.9,85.5 222.1,99.2 222.1,100.1 245.9,86.3 		"/>
		<polygon id="XMLID_48_" class="st16" points="222.1,100.1 187.3,79.9 187.3,79 222.1,99.2 222.1,99.2 		"/>
		<polygon id="XMLID_47_" class="st16" points="245.9,90.1 222.1,103.8 222.1,104.7 245.9,91 		"/>
		<polygon id="XMLID_46_" class="st16" points="222.1,104.7 187.3,84.5 187.3,83.5 222.1,103.8 222.1,103.8 		"/>
		<polygon id="XMLID_45_" class="st16" points="245.9,85.5 245.1,85.9 245.1,91.4 245.9,91 		"/>
		<polygon id="XMLID_44_" class="st24" points="244.3,87.3 222.1,100.1 222.1,102.9 244.3,90.1 		"/>
		<polygon id="XMLID_43_" class="st25" points="188.6,80.6 222.2,100.1 222.2,102.9 188.6,83.5 		"/>
		<polygon id="XMLID_42_" class="st26" points="242,87.7 242,88.7 242.8,88.1 242.8,87.3 		"/>
		<polygon id="XMLID_41_" class="st27" points="207.1,67.5 242,87.7 242.8,87.3 208,67 		"/>
		<path id="XMLID_40_" class="st5" d="M97.8,158.4c5.9,0,10.6,2.2,10.6,5s-4.7,5-10.6,5s-10.6-2.2-10.6-5
			C87.2,160.6,91.9,158.4,97.8,158.4"/>
		<path id="XMLID_39_" class="st28" d="M108,150v-0.4l0,0l0,0c0,0-15.6,0.1-15.5-0.1V164l0,0c0.1,1.1,0.9,2.2,2.3,3
			c3,1.8,8,1.8,11,0c1.5-0.9,2.2-2,2.2-3l0,0V150L108,150z"/>
		<path id="XMLID_38_" class="st29" d="M102.1,149.7c-4.4,0-9.6,0-9.5-0.1V164l0,0c0.1,1.1,0.9,2.2,2.3,3c2,1.1,4.7,1.5,7.3,1.2
			L102.1,149.7L102.1,149.7z"/>
		<path id="XMLID_37_" class="st30" d="M105.8,146.4c3,1.8,3.1,4.6,0,6.3c-3,1.8-8,1.8-11,0c-3-1.8-3.1-4.6,0-6.3
			C97.9,144.7,102.7,144.7,105.8,146.4"/>
		<path id="XMLID_36_" class="st29" d="M105,146.9c2.6,1.5,2.7,3.9,0,5.4c-2.7,1.5-6.8,1.5-9.4,0c-2.6-1.5-2.7-3.9,0-5.4
			C98.2,145.4,102.4,145.4,105,146.9"/>
		<path id="XMLID_35_" class="st31" d="M105,149.3c-2.6-1.5-6.8-1.5-9.4,0c-0.8,0.4-1.3,0.9-1.6,1.5c0.3,0.6,0.9,1.1,1.6,1.5
			c2.6,1.5,6.8,1.5,9.4,0c0.8-0.4,1.3-0.9,1.6-1.5C106.3,150.3,105.7,149.7,105,149.3"/>
		<path id="XMLID_34_" class="st32" d="M94.3,151.2c0.3,0.4,0.8,0.8,1.4,1.1c2.6,1.5,6.8,1.5,9.4,0c0.6-0.3,1-0.7,1.4-1.1
			c-0.3-0.4-0.8-0.8-1.4-1.1c-2.6-1.5-6.8-1.5-9.4,0C95,150.4,94.6,150.8,94.3,151.2"/>
		<path id="XMLID_33_" class="st33" d="M110.4,163.4L110.4,163.4L110.4,163.4L110.4,163.4h-0.2l0,0c-0.1,0-0.1,0-0.1-0.1l-3.5-2.1
			l-1.4,0.8l3.5,2.1l0,0l0,0l0,0l0,0l0,0l0,0l0,0l0,0l0,0l0,0l0,0l0,0l0,0l0,0l0,0l0,0l0,0l0,0l0,0h0.1h0.1L110.4,163.4L110.4,163.4
			z"/>
		<path id="XMLID_32_" class="st29" d="M108.7,156.9c0.9,0.5,1.7,1.9,1.7,2.9v4.5c0,1.1-0.8,1.5-1.7,0.9l-3.5-2.1V162l3.5,2.1
			c0.3,0.2,0.6,0.1,0.6-0.3v-4.5c0-0.4-0.3-0.9-0.6-1l-3.5-2.1v-1.2L108.7,156.9z"/>
		<path id="XMLID_31_" class="st30" d="M111.8,159.1L111.8,159.1L111.8,159.1L111.8,159.1L111.8,159.1v-0.2v-0.1l0,0l0,0v-0.1v-0.1
			l0,0l0,0v-0.1v-0.1v-0.1l0,0l0,0v-0.1v-0.1l0,0l0,0v-0.1v-0.1V158l0,0l0,0l-0.1-0.1l-0.1-0.1l0,0l0,0l-0.1-0.1l-0.1-0.1v-0.1l0,0
			l-0.1-0.1c0-0.1-0.1-0.1-0.1-0.1l0,0c0-0.1-0.1-0.1-0.1-0.2l-0.2-0.1l-0.1-0.1l0,0l0,0l-0.1-0.1l-0.1-0.1l0,0l0,0l-0.1-0.1
			l-0.1-0.1l0,0l0,0l0,0l-0.1-0.1l0,0l0,0l0,0l-0.1-0.1l-0.1-0.1l0,0l0,0l-0.1-0.1l-0.1-0.1l0,0l-3.5-2.1l-1.4,0.8l3.5,2.1
			c0.1,0,0.1,0.1,0.2,0.1l0,0c0.1,0,0.1,0.1,0.2,0.1l0,0c0.1,0.1,0.1,0.1,0.2,0.1l0,0c0.1,0.1,0.1,0.1,0.2,0.2l0,0
			c0.1,0.1,0.1,0.1,0.2,0.2l0,0c0.1,0.1,0.1,0.1,0.2,0.2l0,0l0,0c0.1,0.1,0.1,0.1,0.1,0.2l0.1,0.1l0.1,0.1v0.1
			c0,0.1,0.1,0.1,0.1,0.2l0,0c0,0.1,0.1,0.1,0.1,0.2l0,0c0,0.1,0.1,0.1,0.1,0.2l0,0c0,0.1,0.1,0.2,0.1,0.2l0,0c0,0.1,0,0.1,0.1,0.2
			l0,0c0,0.1,0,0.1,0.1,0.2l0,0c0,0.1,0,0.1,0,0.2l0,0c0,0.1,0,0.1,0,0.2v4.5c0,0.1,0,0.1,0,0.2l0,0c0,0.1,0,0.1,0,0.2l0,0
			c0,0.1,0,0.1-0.1,0.2l0,0c0,0.1,0,0.1-0.1,0.1l0,0c0,0.1-0.1,0.1-0.1,0.1c0,0.1-0.1,0.1-0.1,0.2l0,0c-0.1,0.1-0.1,0.1-0.2,0.1
			l1.4-0.8c0.1,0,0.1-0.1,0.2-0.1l0,0c0.1-0.1,0.1-0.1,0.1-0.2l0,0c0-0.1,0.1-0.1,0.1-0.1l0,0l0,0v-0.1v-0.1l0,0l0,0v-0.1l0,0l0,0
			l0,0v-0.1v-0.1l0,0l0,0v-0.1v-0.1l0,0v-4.5L111.8,159.1z"/>
		<path class="st5" d="M272.2,112.1L272.2,112.1 M272.4,111.8L272.4,111.8L272.4,111.8z M272.4,111.8L272.4,111.8L272.4,111.8z
			 M272.4,111.8L272.4,111.8L272.4,111.8z M272.4,111.9C272.4,111.9,272.4,111.8,272.4,111.9C272.4,111.8,272.4,111.9,272.4,111.9z
			 M272.3,111.9L272.3,111.9L272.3,111.9z M272.3,111.9L272.3,111.9L272.3,111.9z M272.3,111.9L272.3,111.9L272.3,111.9z M272.2,112
			L272.2,112L272.2,112L272.2,112L272.2,112C272.2,111.9,272.2,111.9,272.2,112L272.2,112C272.2,111.9,272.3,111.9,272.2,112
			C272.3,111.9,272.2,111.9,272.2,112 M272.2,112C272.2,112,272.2,112,272.2,112C272.2,112,272.2,112,272.2,112z M272.2,110.8
			l-20.1-11.7c-0.6-0.3-1.6-0.3-2.2,0l-8,4.5c-0.7,0.4-2.7,1.3-1.6,2.2c0.1,0,0.1,0.1,0.1,0.1l0.1,0.1l0,0l20.9,12.2
			c0.1,0.1,0.2,0.1,0.3,0.2l0,0h0.1c0.1,0,0.1,0,0.2,0.1h0.1c0.1,0,0.1,0,0.1,0h0.1l0,0c0.1,0,0.1,0,0.2,0h0.1h0.1h0.1
			c0.1,0,0.1,0,0.2,0h0.1h0.1h0.1c0.1,0,0.1,0,0.2,0h0.1h0.1h0.1c0.1,0,0.1,0,0.2-0.1h0.1l0,0c0.1,0,0.2-0.1,0.3-0.1l8.7-4.7
			c0.3-0.2,0.4-0.4,0.4-0.6v-1.5C272.6,111.2,272.4,111,272.2,110.8z"/>
		<path id="XMLID_19_" class="st34" d="M274,109.7L253.8,98c-0.6-0.3-1.6-0.3-2.2,0l-8.4,4.9c-0.6,0.3-0.6,0.9,0,1.3l20.1,11.7
			c0.6,0.3,1.6,0.3,2.2,0l8.4-4.9C274.6,110.6,274.6,110,274,109.7"/>
		<path id="XMLID_18_" class="st35" d="M267.4,112c-0.5,0.3-0.5,0.8,0,1.1c0.5,0.3,1.4,0.3,1.9,0c0.5-0.3,0.5-0.8,0-1.1
			C268.7,111.8,267.9,111.8,267.4,112"/>
		<polygon id="XMLID_17_" class="st20" points="244.9,104.4 261.9,114.2 271.2,108.8 254.2,99 		"/>
		<path id="XMLID_16_" class="st5" d="M274.5,110.4c0,0.3-0.2,0.4-0.4,0.6l-8.4,4.9c-0.1,0.1-0.2,0.1-0.3,0.1h-0.1
			c-0.1,0-0.2,0.1-0.3,0.1H265c-0.1,0-0.2,0-0.3,0.1h-0.1c-0.1,0-0.2,0-0.3,0h-0.1c-0.1,0-0.2,0-0.3,0h-0.1c-0.1,0-0.1,0-0.2,0
			c-0.1,0-0.1,0-0.2-0.1c-0.1,0-0.1,0-0.1,0c-0.1-0.1-0.3-0.1-0.3-0.2l-20.1-11.7l-0.1-0.1c-0.1,0-0.1-0.1-0.1-0.1
			c-0.1-0.1-0.1-0.1-0.1-0.2l0,0c0-0.1-0.1-0.1-0.1-0.2l0,0c0-0.1,0-0.1,0-0.2v1.5l0,0v0.1v0.1l0,0l0,0l0.1,0.1v0.1l0,0l0,0l0.1,0.1
			l0,0l0.1,0.1l0.1,0.1l0,0l20.1,11.7c0.1,0.1,0.2,0.1,0.3,0.2l0,0h0.1c0.1,0,0.1,0,0.2,0.1h0.1c0.1,0,0.1,0,0.1,0h0.1l0,0
			c0.1,0,0.1,0,0.2,0h0.1h0.1h0.1c0.1,0,0.1,0,0.2,0h0.1h0.1h0.1c0.1,0,0.1,0,0.2,0h0.1h0.1h0.1c0.1,0,0.1,0,0.2-0.1h0.1l0,0
			c0.1,0,0.2-0.1,0.3-0.1l8.4-4.9c0.3-0.2,0.4-0.4,0.4-0.6L274.5,110.4z"/>
		<path id="XMLID_15_" class="st36" d="M117.5,148.6c-0.5,0-0.9-0.1-1.4-0.3L77.8,126c-0.9-0.4-1.5-1.4-1.5-2.2
			c0-0.9,0.5-1.8,1.5-2.2l41-23.5v50.3l0,0C118.4,148.5,118,148.6,117.5,148.6"/>
		<path id="XMLID_14_" class="st7" d="M153.5,121.5l-13.3,6.1c-0.9,0.4-1,1.6-0.3,2.2l14,10.8c1.4,1,3.3,1.3,4.8,0.5l16.6-9.8
			c1.1-0.5,1.3-2.7,0.1-3.1l-21.1-6.8C154.1,121.4,153.7,121.4,153.5,121.5"/>
		<path id="XMLID_13_" class="st37" d="M154.4,121.5c-0.3-0.1-0.7-0.1-0.9,0.1l-13.3,6.1c-0.9,0.4-1,1.6-0.3,2.2l14,10.8
			c1.2,0.9,2.7,1.2,4,0.8v-18.8L154.4,121.5z"/>
		<path id="XMLID_12_" class="st38" d="M154.4,121.5c-0.3-0.1-0.7-0.1-0.9,0.1l-13.3,6.1c-0.9,0.4-1,1.6-0.3,2.2l14,10.8
			c0.2,0.1,0.3,0.3,0.5,0.3L154.4,121.5L154.4,121.5z"/>
		<path id="XMLID_11_" class="st8" d="M153.5,120.7l-13.3,6.1c-0.9,0.4-1,1.6-0.3,2.2l14,10.8c1.4,1,3.3,1.3,4.8,0.5l16.6-9.8
			c1.1-0.5,1-2.1-0.2-2.5l-20.8-7.4C154.1,120.5,153.7,120.5,153.5,120.7"/>
		<path id="XMLID_10_" class="st39" d="M155.8,121.1c-0.3-0.1-0.7-0.1-0.9,0.1l-13.3,6.1c-0.9,0.4-1.4,2.1-0.6,2.7l8.6,6.4l18.1-11
			L155.8,121.1z"/>
		<path id="XMLID_9_" class="st8" d="M114.5,83.8v60.8c0,1.8,2.9,4,4.6,3.3l71.1-42.7c0.9-0.4,1.5-1.3,1.5-2.3l1.5-62.6
			c0-1.8-3.3-2.9-5-2.1l-70.7,41.1C115.6,80.1,114.5,81.9,114.5,83.8"/>
		<path id="XMLID_8_" class="st40" d="M117.3,79.3c-1.7,0.8-2.8,2.6-2.8,4.4v60.8c0,1.8,2.9,4,4.6,3.3l7.1-3.4V80.7L117.3,79.3z"/>
		<path id="XMLID_7_" class="st41" d="M116.2,84.9v60.8c0,1.8,1.9,3.1,3.6,2.3l72.1-41.7c0.9-0.4,1.5-1.3,1.5-2.3V41.7
			c0-1.8-1.9-3.1-3.6-2.3l-70.7,41.1C117.4,81.2,116.2,83,116.2,84.9"/>
		<path id="XMLID_6_" class="st7" d="M116.2,145.7c0,1.8,1.9,3.1,3.6,2.3l72.1-41.7c0.9-0.4,1.5-1.3,1.5-2.3v-8.2l-77.2,44.1V145.7z
			"/>
		<path id="XMLID_5_" class="st42" d="M118.8,148.3c-1.3,0-2.5-1.1-2.5-2.6v-0.9c0,1.5,1.2,2.6,2.5,2.6c0.3,0,0.7-0.1,1-0.3
			l72.1-41.7c0.9-0.4,1.5-1.3,1.5-2.3v0.9c0,1-0.6,1.9-1.5,2.3L119.8,148C119.5,148.2,119.2,148.3,118.8,148.3"/>
		<path id="XMLID_4_" class="st43" d="M119.6,84.7v48.8c0,0.8,0.8,1.3,1.5,0.9l68.7-39.8c0.3-0.2,0.6-0.5,0.6-0.9V44.9
			c0-0.8-0.8-1.3-1.5-0.9l-68.7,39.8C119.8,83.9,119.6,84.3,119.6,84.7"/>
		<path id="XMLID_3_" class="st44" d="M119.6,84.7v48.8c0,0.5,0.3,0.9,0.8,1l69.8-90.3c-0.3-0.4-0.8-0.6-1.3-0.3l-68.7,39.8
			C119.8,83.9,119.6,84.3,119.6,84.7"/>
		<path id="XMLID_2_" class="st45" d="M154.2,123.9c-0.4,0-0.9-0.3-0.9-0.9v-1.5c0-0.3,0.2-0.6,0.5-0.8l1.1-0.5
			c0.1-0.1,0.3-0.1,0.3-0.1c0.4,0,0.9,0.3,0.9,0.9v1.5c0,0.3-0.2,0.6-0.5,0.8l-1.1,0.5C154.5,123.9,154.4,123.9,154.2,123.9"/>
	</g>
</g>
</svg>
